<svg width="586" height="141" viewBox="0 0 586 141" fill="none" xmlns="http://www.w3.org/2000/svg">
<path d="M246.572 6.02V8.61H251.108V10.43H246.572V14H244.304V4.2H251.71V6.02H246.572ZM256.484 14.112C255.69 14.112 254.976 13.9487 254.342 13.622C253.716 13.286 253.226 12.824 252.872 12.236C252.517 11.648 252.34 10.9807 252.34 10.234C252.34 9.48733 252.517 8.82 252.872 8.232C253.226 7.644 253.716 7.18667 254.342 6.86C254.976 6.524 255.69 6.356 256.484 6.356C257.277 6.356 257.986 6.524 258.612 6.86C259.237 7.18667 259.727 7.644 260.082 8.232C260.436 8.82 260.614 9.48733 260.614 10.234C260.614 10.9807 260.436 11.648 260.082 12.236C259.727 12.824 259.237 13.286 258.612 13.622C257.986 13.9487 257.277 14.112 256.484 14.112ZM256.484 12.32C257.044 12.32 257.501 12.1333 257.856 11.76C258.22 11.3773 258.402 10.8687 258.402 10.234C258.402 9.59933 258.22 9.09533 257.856 8.722C257.501 8.33933 257.044 8.148 256.484 8.148C255.924 8.148 255.462 8.33933 255.098 8.722C254.734 9.09533 254.552 9.59933 254.552 10.234C254.552 10.8687 254.734 11.3773 255.098 11.76C255.462 12.1333 255.924 12.32 256.484 12.32ZM265.713 14.112C264.911 14.112 264.187 13.9487 263.543 13.622C262.909 13.286 262.409 12.824 262.045 12.236C261.691 11.648 261.513 10.9807 261.513 10.234C261.513 9.48733 261.691 8.82 262.045 8.232C262.409 7.644 262.909 7.18667 263.543 6.86C264.187 6.524 264.911 6.356 265.713 6.356C266.507 6.356 267.197 6.524 267.785 6.86C268.383 7.18667 268.817 7.658 269.087 8.274L267.393 9.184C267.001 8.49333 266.437 8.148 265.699 8.148C265.13 8.148 264.659 8.33467 264.285 8.708C263.912 9.08133 263.725 9.59 263.725 10.234C263.725 10.878 263.912 11.3867 264.285 11.76C264.659 12.1333 265.13 12.32 265.699 12.32C266.446 12.32 267.011 11.9747 267.393 11.284L269.087 12.208C268.817 12.8053 268.383 13.272 267.785 13.608C267.197 13.944 266.507 14.112 265.713 14.112ZM277.933 6.468V14H275.861V13.104C275.572 13.4307 275.226 13.6827 274.825 13.86C274.424 14.028 273.99 14.112 273.523 14.112C272.534 14.112 271.75 13.8273 271.171 13.258C270.592 12.6887 270.303 11.844 270.303 10.724V6.468H272.487V10.402C272.487 11.6153 272.996 12.222 274.013 12.222C274.536 12.222 274.956 12.054 275.273 11.718C275.59 11.3727 275.749 10.864 275.749 10.192V6.468H277.933ZM282.49 14.112C281.865 14.112 281.254 14.0373 280.656 13.888C280.059 13.7293 279.583 13.5333 279.228 13.3L279.956 11.732C280.292 11.9467 280.698 12.124 281.174 12.264C281.65 12.3947 282.117 12.46 282.574 12.46C283.498 12.46 283.96 12.2313 283.96 11.774C283.96 11.5593 283.834 11.4053 283.582 11.312C283.33 11.2187 282.943 11.1393 282.42 11.074C281.804 10.9807 281.296 10.8733 280.894 10.752C280.493 10.6307 280.143 10.416 279.844 10.108C279.555 9.8 279.41 9.36133 279.41 8.792C279.41 8.316 279.546 7.896 279.816 7.532C280.096 7.15867 280.498 6.86933 281.02 6.664C281.552 6.45867 282.178 6.356 282.896 6.356C283.428 6.356 283.956 6.41667 284.478 6.538C285.01 6.65 285.449 6.80867 285.794 7.014L285.066 8.568C284.404 8.19467 283.68 8.008 282.896 8.008C282.43 8.008 282.08 8.07333 281.846 8.204C281.613 8.33467 281.496 8.50267 281.496 8.708C281.496 8.94133 281.622 9.10467 281.874 9.198C282.126 9.29133 282.528 9.38 283.078 9.464C283.694 9.56667 284.198 9.67867 284.59 9.8C284.982 9.912 285.323 10.122 285.612 10.43C285.902 10.738 286.046 11.1673 286.046 11.718C286.046 12.1847 285.906 12.6 285.626 12.964C285.346 13.328 284.936 13.6127 284.394 13.818C283.862 14.014 283.228 14.112 282.49 14.112ZM296.259 14.168C295.241 14.168 294.322 13.9487 293.501 13.51C292.689 13.0713 292.049 12.4693 291.583 11.704C291.125 10.9293 290.897 10.0613 290.897 9.1C290.897 8.13867 291.125 7.27533 291.583 6.51C292.049 5.73533 292.689 5.12867 293.501 4.69C294.322 4.25133 295.241 4.032 296.259 4.032C297.276 4.032 298.191 4.25133 299.003 4.69C299.815 5.12867 300.454 5.73533 300.921 6.51C301.387 7.27533 301.621 8.13867 301.621 9.1C301.621 10.0613 301.387 10.9293 300.921 11.704C300.454 12.4693 299.815 13.0713 299.003 13.51C298.191 13.9487 297.276 14.168 296.259 14.168ZM296.259 12.236C296.837 12.236 297.36 12.1053 297.827 11.844C298.293 11.5733 298.657 11.2 298.919 10.724C299.189 10.248 299.325 9.70667 299.325 9.1C299.325 8.49333 299.189 7.952 298.919 7.476C298.657 7 298.293 6.63133 297.827 6.37C297.36 6.09933 296.837 5.964 296.259 5.964C295.68 5.964 295.157 6.09933 294.691 6.37C294.224 6.63133 293.855 7 293.585 7.476C293.323 7.952 293.193 8.49333 293.193 9.1C293.193 9.70667 293.323 10.248 293.585 10.724C293.855 11.2 294.224 11.5733 294.691 11.844C295.157 12.1053 295.68 12.236 296.259 12.236ZM307.749 6.356C308.682 6.356 309.434 6.636 310.003 7.196C310.582 7.756 310.871 8.58667 310.871 9.688V14H308.687V10.024C308.687 9.42667 308.556 8.98333 308.295 8.694C308.034 8.39533 307.656 8.246 307.161 8.246C306.61 8.246 306.172 8.41867 305.845 8.764C305.518 9.1 305.355 9.604 305.355 10.276V14H303.171V6.468H305.257V7.35C305.546 7.03267 305.906 6.79 306.335 6.622C306.764 6.44467 307.236 6.356 307.749 6.356ZM312.851 3.612H315.035V14H312.851V3.612ZM317.062 6.468H319.246V14H317.062V6.468ZM318.154 5.418C317.752 5.418 317.426 5.30133 317.174 5.068C316.922 4.83467 316.796 4.54533 316.796 4.2C316.796 3.85467 316.922 3.56533 317.174 3.332C317.426 3.09867 317.752 2.982 318.154 2.982C318.555 2.982 318.882 3.094 319.134 3.318C319.386 3.542 319.512 3.822 319.512 4.158C319.512 4.522 319.386 4.82533 319.134 5.068C318.882 5.30133 318.555 5.418 318.154 5.418ZM325.851 6.356C326.784 6.356 327.535 6.636 328.105 7.196C328.683 7.756 328.973 8.58667 328.973 9.688V14H326.789V10.024C326.789 9.42667 326.658 8.98333 326.397 8.694C326.135 8.39533 325.757 8.246 325.263 8.246C324.712 8.246 324.273 8.41867 323.947 8.764C323.62 9.1 323.457 9.604 323.457 10.276V14H321.273V6.468H323.359V7.35C323.648 7.03267 324.007 6.79 324.437 6.622C324.866 6.44467 325.337 6.356 325.851 6.356ZM338.412 10.262C338.412 10.29 338.398 10.486 338.37 10.85H332.672C332.775 11.3167 333.018 11.6853 333.4 11.956C333.783 12.2267 334.259 12.362 334.828 12.362C335.22 12.362 335.566 12.306 335.864 12.194C336.172 12.0727 336.457 11.886 336.718 11.634L337.88 12.894C337.171 13.706 336.135 14.112 334.772 14.112C333.923 14.112 333.172 13.9487 332.518 13.622C331.865 13.286 331.361 12.824 331.006 12.236C330.652 11.648 330.474 10.9807 330.474 10.234C330.474 9.49667 330.647 8.834 330.992 8.246C331.347 7.64867 331.828 7.18667 332.434 6.86C333.05 6.524 333.736 6.356 334.492 6.356C335.23 6.356 335.897 6.51467 336.494 6.832C337.092 7.14933 337.558 7.60667 337.894 8.204C338.24 8.792 338.412 9.478 338.412 10.262ZM334.506 8.008C334.012 8.008 333.596 8.148 333.26 8.428C332.924 8.708 332.719 9.09067 332.644 9.576H336.354C336.28 9.1 336.074 8.722 335.738 8.442C335.402 8.15267 334.992 8.008 334.506 8.008Z" fill="black"/>
<rect x="209" y="25" width="168" height="115" rx="17" fill="white" stroke="#176B3E" stroke-width="2"/>
<path d="M236.68 46.612V57H234.594V56.132C234.053 56.7853 233.269 57.112 232.242 57.112C231.533 57.112 230.889 56.9533 230.31 56.636C229.741 56.3187 229.293 55.866 228.966 55.278C228.639 54.69 228.476 54.0087 228.476 53.234C228.476 52.4593 228.639 51.778 228.966 51.19C229.293 50.602 229.741 50.1493 230.31 49.832C230.889 49.5147 231.533 49.356 232.242 49.356C233.203 49.356 233.955 49.6593 234.496 50.266V46.612H236.68ZM232.62 55.32C233.171 55.32 233.628 55.1333 233.992 54.76C234.356 54.3773 234.538 53.8687 234.538 53.234C234.538 52.5993 234.356 52.0953 233.992 51.722C233.628 51.3393 233.171 51.148 232.62 51.148C232.06 51.148 231.598 51.3393 231.234 51.722C230.87 52.0953 230.688 52.5993 230.688 53.234C230.688 53.8687 230.87 54.3773 231.234 54.76C231.598 55.1333 232.06 55.32 232.62 55.32ZM241.739 49.356C242.906 49.356 243.802 49.636 244.427 50.196C245.053 50.7467 245.365 51.582 245.365 52.702V57H243.321V56.062C242.911 56.762 242.145 57.112 241.025 57.112C240.447 57.112 239.943 57.014 239.513 56.818C239.093 56.622 238.771 56.3513 238.547 56.006C238.323 55.6607 238.211 55.2687 238.211 54.83C238.211 54.13 238.473 53.5793 238.995 53.178C239.527 52.7767 240.344 52.576 241.445 52.576H243.181C243.181 52.1 243.037 51.736 242.747 51.484C242.458 51.2227 242.024 51.092 241.445 51.092C241.044 51.092 240.647 51.1573 240.255 51.288C239.873 51.4093 239.546 51.5773 239.275 51.792L238.491 50.266C238.902 49.9767 239.392 49.7527 239.961 49.594C240.54 49.4353 241.133 49.356 241.739 49.356ZM241.571 55.642C241.945 55.642 242.276 55.558 242.565 55.39C242.855 55.2127 243.06 54.956 243.181 54.62V53.85H241.683C240.787 53.85 240.339 54.144 240.339 54.732C240.339 55.012 240.447 55.236 240.661 55.404C240.885 55.5627 241.189 55.642 241.571 55.642ZM252.2 56.636C251.985 56.7947 251.719 56.916 251.402 57C251.094 57.0747 250.767 57.112 250.422 57.112C249.526 57.112 248.831 56.8833 248.336 56.426C247.851 55.9687 247.608 55.2967 247.608 54.41V51.316H246.446V49.636H247.608V47.802H249.792V49.636H251.668V51.316H249.792V54.382C249.792 54.6993 249.871 54.9467 250.03 55.124C250.198 55.292 250.431 55.376 250.73 55.376C251.075 55.376 251.369 55.2827 251.612 55.096L252.2 56.636ZM261.014 49.468V57H258.942V56.104C258.653 56.4307 258.307 56.6827 257.906 56.86C257.505 57.028 257.071 57.112 256.604 57.112C255.615 57.112 254.831 56.8273 254.252 56.258C253.673 55.6887 253.384 54.844 253.384 53.724V49.468H255.568V53.402C255.568 54.6153 256.077 55.222 257.094 55.222C257.617 55.222 258.037 55.054 258.354 54.718C258.671 54.3727 258.83 53.864 258.83 53.192V49.468H261.014ZM272.683 49.356C273.626 49.356 274.373 49.636 274.923 50.196C275.483 50.7467 275.763 51.5773 275.763 52.688V57H273.579V53.024C273.579 52.4267 273.453 51.9833 273.201 51.694C272.959 51.3953 272.609 51.246 272.151 51.246C271.638 51.246 271.232 51.414 270.933 51.75C270.635 52.0767 270.485 52.5667 270.485 53.22V57H268.301V53.024C268.301 51.8387 267.825 51.246 266.873 51.246C266.369 51.246 265.968 51.414 265.669 51.75C265.371 52.0767 265.221 52.5667 265.221 53.22V57H263.037V49.468H265.123V50.336C265.403 50.0187 265.744 49.776 266.145 49.608C266.556 49.44 267.004 49.356 267.489 49.356C268.021 49.356 268.502 49.4633 268.931 49.678C269.361 49.8833 269.706 50.1867 269.967 50.588C270.275 50.196 270.663 49.8927 271.129 49.678C271.605 49.4633 272.123 49.356 272.683 49.356ZM278.547 57.112C278.164 57.112 277.842 56.9813 277.581 56.72C277.32 56.4587 277.189 56.132 277.189 55.74C277.189 55.3387 277.32 55.0167 277.581 54.774C277.842 54.522 278.164 54.396 278.547 54.396C278.93 54.396 279.252 54.522 279.513 54.774C279.774 55.0167 279.905 55.3387 279.905 55.74C279.905 56.132 279.774 56.4587 279.513 56.72C279.252 56.9813 278.93 57.112 278.547 57.112ZM286.188 56.636C285.974 56.7947 285.708 56.916 285.39 57C285.082 57.0747 284.756 57.112 284.41 57.112C283.514 57.112 282.819 56.8833 282.324 56.426C281.839 55.9687 281.596 55.2967 281.596 54.41V51.316H280.434V49.636H281.596V47.802H283.78V49.636H285.656V51.316H283.78V54.382C283.78 54.6993 283.86 54.9467 284.018 55.124C284.186 55.292 284.42 55.376 284.718 55.376C285.064 55.376 285.358 55.2827 285.6 55.096L286.188 56.636ZM292.202 57L290.55 54.69L288.842 57H286.462L289.36 53.206L286.56 49.468H289.01L290.606 51.666L292.244 49.468H294.568L291.768 53.15L294.68 57H292.202ZM300.598 56.636C300.384 56.7947 300.118 56.916 299.8 57C299.492 57.0747 299.166 57.112 298.82 57.112C297.924 57.112 297.229 56.8833 296.734 56.426C296.249 55.9687 296.006 55.2967 296.006 54.41V51.316H294.844V49.636H296.006V47.802H298.19V49.636H300.066V51.316H298.19V54.382C298.19 54.6993 298.27 54.9467 298.428 55.124C298.596 55.292 298.83 55.376 299.128 55.376C299.474 55.376 299.768 55.2827 300.01 55.096L300.598 56.636Z" fill="black"/>
<path d="M256.15 74.2V84H253.882V79.982H249.43V84H247.162V74.2H249.43V78.064H253.882V74.2H256.15ZM265.693 80.262C265.693 80.29 265.679 80.486 265.651 80.85H259.953C260.055 81.3167 260.298 81.6853 260.681 81.956C261.063 82.2267 261.539 82.362 262.109 82.362C262.501 82.362 262.846 82.306 263.145 82.194C263.453 82.0727 263.737 81.886 263.999 81.634L265.161 82.894C264.451 83.706 263.415 84.112 262.053 84.112C261.203 84.112 260.452 83.9487 259.799 83.622C259.145 83.286 258.641 82.824 258.287 82.236C257.932 81.648 257.755 80.9807 257.755 80.234C257.755 79.4967 257.927 78.834 258.273 78.246C258.627 77.6487 259.108 77.1867 259.715 76.86C260.331 76.524 261.017 76.356 261.773 76.356C262.51 76.356 263.177 76.5147 263.775 76.832C264.372 77.1493 264.839 77.6067 265.175 78.204C265.52 78.792 265.693 79.478 265.693 80.262ZM261.787 78.008C261.292 78.008 260.877 78.148 260.541 78.428C260.205 78.708 259.999 79.0907 259.925 79.576H263.635C263.56 79.1 263.355 78.722 263.019 78.442C262.683 78.1527 262.272 78.008 261.787 78.008ZM269.98 76.356C271.146 76.356 272.042 76.636 272.668 77.196C273.293 77.7467 273.606 78.582 273.606 79.702V84H271.562V83.062C271.151 83.762 270.386 84.112 269.266 84.112C268.687 84.112 268.183 84.014 267.754 83.818C267.334 83.622 267.012 83.3513 266.788 83.006C266.564 82.6607 266.452 82.2687 266.452 81.83C266.452 81.13 266.713 80.5793 267.236 80.178C267.768 79.7767 268.584 79.576 269.686 79.576H271.422C271.422 79.1 271.277 78.736 270.988 78.484C270.698 78.2227 270.264 78.092 269.686 78.092C269.284 78.092 268.888 78.1573 268.496 78.288C268.113 78.4093 267.786 78.5773 267.516 78.792L266.732 77.266C267.142 76.9767 267.632 76.7527 268.202 76.594C268.78 76.4353 269.373 76.356 269.98 76.356ZM269.812 82.642C270.185 82.642 270.516 82.558 270.806 82.39C271.095 82.2127 271.3 81.956 271.422 81.62V80.85H269.924C269.028 80.85 268.58 81.144 268.58 81.732C268.58 82.012 268.687 82.236 268.902 82.404C269.126 82.5627 269.429 82.642 269.812 82.642ZM283.336 73.612V84H281.25V83.132C280.709 83.7853 279.925 84.112 278.898 84.112C278.189 84.112 277.545 83.9533 276.966 83.636C276.397 83.3187 275.949 82.866 275.622 82.278C275.296 81.69 275.132 81.0087 275.132 80.234C275.132 79.4593 275.296 78.778 275.622 78.19C275.949 77.602 276.397 77.1493 276.966 76.832C277.545 76.5147 278.189 76.356 278.898 76.356C279.86 76.356 280.611 76.6593 281.152 77.266V73.612H283.336ZM279.276 82.32C279.827 82.32 280.284 82.1333 280.648 81.76C281.012 81.3773 281.194 80.8687 281.194 80.234C281.194 79.5993 281.012 79.0953 280.648 78.722C280.284 78.3393 279.827 78.148 279.276 78.148C278.716 78.148 278.254 78.3393 277.89 78.722C277.526 79.0953 277.344 79.5993 277.344 80.234C277.344 80.8687 277.526 81.3773 277.89 81.76C278.254 82.1333 278.716 82.32 279.276 82.32ZM285.358 73.612H287.542V84H285.358V73.612ZM289.569 76.468H291.753V84H289.569V76.468ZM290.661 75.418C290.259 75.418 289.933 75.3013 289.681 75.068C289.429 74.8347 289.303 74.5453 289.303 74.2C289.303 73.8547 289.429 73.5653 289.681 73.332C289.933 73.0987 290.259 72.982 290.661 72.982C291.062 72.982 291.389 73.094 291.641 73.318C291.893 73.542 292.019 73.822 292.019 74.158C292.019 74.522 291.893 74.8253 291.641 75.068C291.389 75.3013 291.062 75.418 290.661 75.418ZM298.357 76.356C299.291 76.356 300.042 76.636 300.611 77.196C301.19 77.756 301.479 78.5867 301.479 79.688V84H299.295V80.024C299.295 79.4267 299.165 78.9833 298.903 78.694C298.642 78.3953 298.264 78.246 297.769 78.246C297.219 78.246 296.78 78.4187 296.453 78.764C296.127 79.1 295.963 79.604 295.963 80.276V84H293.779V76.468H295.865V77.35C296.155 77.0327 296.514 76.79 296.943 76.622C297.373 76.4447 297.844 76.356 298.357 76.356ZM310.919 80.262C310.919 80.29 310.905 80.486 310.877 80.85H305.179C305.282 81.3167 305.525 81.6853 305.907 81.956C306.29 82.2267 306.766 82.362 307.335 82.362C307.727 82.362 308.073 82.306 308.371 82.194C308.679 82.0727 308.964 81.886 309.225 81.634L310.387 82.894C309.678 83.706 308.642 84.112 307.279 84.112C306.43 84.112 305.679 83.9487 305.025 83.622C304.372 83.286 303.868 82.824 303.513 82.236C303.159 81.648 302.981 80.9807 302.981 80.234C302.981 79.4967 303.154 78.834 303.499 78.246C303.854 77.6487 304.335 77.1867 304.941 76.86C305.557 76.524 306.243 76.356 306.999 76.356C307.737 76.356 308.404 76.5147 309.001 76.832C309.599 77.1493 310.065 77.6067 310.401 78.204C310.747 78.792 310.919 79.478 310.919 80.262ZM307.013 78.008C306.519 78.008 306.103 78.148 305.767 78.428C305.431 78.708 305.226 79.0907 305.151 79.576H308.861C308.787 79.1 308.581 78.722 308.245 78.442C307.909 78.1527 307.499 78.008 307.013 78.008ZM247.162 91.2H249.43V99.152H254.344V101H247.162V91.2ZM262.781 97.262C262.781 97.29 262.767 97.486 262.739 97.85H257.041C257.143 98.3167 257.386 98.6853 257.769 98.956C258.151 99.2267 258.627 99.362 259.197 99.362C259.589 99.362 259.934 99.306 260.233 99.194C260.541 99.0727 260.825 98.886 261.087 98.634L262.249 99.894C261.539 100.706 260.503 101.112 259.141 101.112C258.291 101.112 257.54 100.949 256.887 100.622C256.233 100.286 255.729 99.824 255.375 99.236C255.02 98.648 254.843 97.9807 254.843 97.234C254.843 96.4967 255.015 95.834 255.361 95.246C255.715 94.6487 256.196 94.1867 256.803 93.86C257.419 93.524 258.105 93.356 258.861 93.356C259.598 93.356 260.265 93.5147 260.863 93.832C261.46 94.1493 261.927 94.6067 262.263 95.204C262.608 95.792 262.781 96.478 262.781 97.262ZM258.875 95.008C258.38 95.008 257.965 95.148 257.629 95.428C257.293 95.708 257.087 96.0907 257.013 96.576H260.723C260.648 96.1 260.443 95.722 260.107 95.442C259.771 95.1527 259.36 95.008 258.875 95.008ZM267.067 93.356C268.234 93.356 269.13 93.636 269.755 94.196C270.381 94.7467 270.693 95.582 270.693 96.702V101H268.649V100.062C268.239 100.762 267.473 101.112 266.353 101.112C265.775 101.112 265.271 101.014 264.841 100.818C264.421 100.622 264.099 100.351 263.875 100.006C263.651 99.6607 263.539 99.2687 263.539 98.83C263.539 98.13 263.801 97.5793 264.323 97.178C264.855 96.7767 265.672 96.576 266.773 96.576H268.509C268.509 96.1 268.365 95.736 268.075 95.484C267.786 95.2227 267.352 95.092 266.773 95.092C266.372 95.092 265.975 95.1573 265.583 95.288C265.201 95.4093 264.874 95.5773 264.603 95.792L263.819 94.266C264.23 93.9767 264.72 93.7527 265.289 93.594C265.868 93.4353 266.461 93.356 267.067 93.356ZM266.899 99.642C267.273 99.642 267.604 99.558 267.893 99.39C268.183 99.2127 268.388 98.956 268.509 98.62V97.85H267.011C266.115 97.85 265.667 98.144 265.667 98.732C265.667 99.012 265.775 99.236 265.989 99.404C266.213 99.5627 266.517 99.642 266.899 99.642ZM280.424 90.612V101H278.338V100.132C277.797 100.785 277.013 101.112 275.986 101.112C275.277 101.112 274.633 100.953 274.054 100.636C273.485 100.319 273.037 99.866 272.71 99.278C272.383 98.69 272.22 98.0087 272.22 97.234C272.22 96.4593 272.383 95.778 272.71 95.19C273.037 94.602 273.485 94.1493 274.054 93.832C274.633 93.5147 275.277 93.356 275.986 93.356C276.947 93.356 277.699 93.6593 278.24 94.266V90.612H280.424ZM276.364 99.32C276.915 99.32 277.372 99.1333 277.736 98.76C278.1 98.3773 278.282 97.8687 278.282 97.234C278.282 96.5993 278.1 96.0953 277.736 95.722C277.372 95.3393 276.915 95.148 276.364 95.148C275.804 95.148 275.342 95.3393 274.978 95.722C274.614 96.0953 274.432 96.5993 274.432 97.234C274.432 97.8687 274.614 98.3773 274.978 98.76C275.342 99.1333 275.804 99.32 276.364 99.32ZM282.6 91.2H284.868V101H282.6V91.2ZM291.617 93.356C292.551 93.356 293.302 93.636 293.871 94.196C294.45 94.756 294.739 95.5867 294.739 96.688V101H292.555V97.024C292.555 96.4267 292.425 95.9833 292.163 95.694C291.902 95.3953 291.524 95.246 291.029 95.246C290.479 95.246 290.04 95.4187 289.713 95.764C289.387 96.1 289.223 96.604 289.223 97.276V101H287.039V93.468H289.125V94.35C289.415 94.0327 289.774 93.79 290.203 93.622C290.633 93.4447 291.104 93.356 291.617 93.356ZM253.616 115.9H249.066L248.198 118H245.874L250.242 108.2H252.482L256.864 118H254.484L253.616 115.9ZM252.902 114.178L251.348 110.426L249.794 114.178H252.902ZM259.813 111.462C260.074 111.098 260.424 110.823 260.863 110.636C261.311 110.449 261.824 110.356 262.403 110.356V112.372C262.16 112.353 261.997 112.344 261.913 112.344C261.287 112.344 260.797 112.521 260.443 112.876C260.088 113.221 259.911 113.744 259.911 114.444V118H257.727V110.468H259.813V111.462ZM268.819 117.636C268.604 117.795 268.338 117.916 268.021 118C267.713 118.075 267.386 118.112 267.041 118.112C266.145 118.112 265.45 117.883 264.955 117.426C264.47 116.969 264.227 116.297 264.227 115.41V112.316H263.065V110.636H264.227V108.802H266.411V110.636H268.287V112.316H266.411V115.382C266.411 115.699 266.49 115.947 266.649 116.124C266.817 116.292 267.05 116.376 267.349 116.376C267.694 116.376 267.988 116.283 268.231 116.096L268.819 117.636ZM270.045 110.468H272.229V118H270.045V110.468ZM271.137 109.418C270.736 109.418 270.409 109.301 270.157 109.068C269.905 108.835 269.779 108.545 269.779 108.2C269.779 107.855 269.905 107.565 270.157 107.332C270.409 107.099 270.736 106.982 271.137 106.982C271.538 106.982 271.865 107.094 272.117 107.318C272.369 107.542 272.495 107.822 272.495 108.158C272.495 108.522 272.369 108.825 272.117 109.068C271.865 109.301 271.538 109.418 271.137 109.418ZM277.49 115.046L276.44 116.082V118H274.256V107.612H276.44V113.492L279.632 110.468H282.236L279.1 113.66L282.516 118H279.87L277.49 115.046ZM290.548 114.262C290.548 114.29 290.534 114.486 290.506 114.85H284.808C284.911 115.317 285.153 115.685 285.536 115.956C285.919 116.227 286.395 116.362 286.964 116.362C287.356 116.362 287.701 116.306 288 116.194C288.308 116.073 288.593 115.886 288.854 115.634L290.016 116.894C289.307 117.706 288.271 118.112 286.908 118.112C286.059 118.112 285.307 117.949 284.654 117.622C284.001 117.286 283.497 116.824 283.142 116.236C282.787 115.648 282.61 114.981 282.61 114.234C282.61 113.497 282.783 112.834 283.128 112.246C283.483 111.649 283.963 111.187 284.57 110.86C285.186 110.524 285.872 110.356 286.628 110.356C287.365 110.356 288.033 110.515 288.63 110.832C289.227 111.149 289.694 111.607 290.03 112.204C290.375 112.792 290.548 113.478 290.548 114.262ZM286.642 112.008C286.147 112.008 285.732 112.148 285.396 112.428C285.06 112.708 284.855 113.091 284.78 113.576H288.49C288.415 113.1 288.21 112.722 287.874 112.442C287.538 112.153 287.127 112.008 286.642 112.008ZM292.002 107.612H294.186V118H292.002V107.612ZM296.213 110.468H298.397V118H296.213V110.468ZM297.305 109.418C296.904 109.418 296.577 109.301 296.325 109.068C296.073 108.835 295.947 108.545 295.947 108.2C295.947 107.855 296.073 107.565 296.325 107.332C296.577 107.099 296.904 106.982 297.305 106.982C297.706 106.982 298.033 107.094 298.285 107.318C298.537 107.542 298.663 107.822 298.663 108.158C298.663 108.522 298.537 108.825 298.285 109.068C298.033 109.301 297.706 109.418 297.305 109.418ZM305.002 110.356C305.935 110.356 306.687 110.636 307.256 111.196C307.835 111.756 308.124 112.587 308.124 113.688V118H305.94V114.024C305.94 113.427 305.809 112.983 305.548 112.694C305.287 112.395 304.909 112.246 304.414 112.246C303.863 112.246 303.425 112.419 303.098 112.764C302.771 113.1 302.608 113.604 302.608 114.276V118H300.424V110.468H302.51V111.35C302.799 111.033 303.159 110.79 303.588 110.622C304.017 110.445 304.489 110.356 305.002 110.356ZM314.682 110.356C315.615 110.356 316.366 110.636 316.936 111.196C317.514 111.756 317.804 112.587 317.804 113.688V118H315.62V114.024C315.62 113.427 315.489 112.983 315.228 112.694C314.966 112.395 314.588 112.246 314.094 112.246C313.543 112.246 313.104 112.419 312.778 112.764C312.451 113.1 312.288 113.604 312.288 114.276V118H310.104V107.612H312.288V111.252C312.577 110.963 312.927 110.743 313.338 110.594C313.748 110.435 314.196 110.356 314.682 110.356ZM322.821 110.356C323.988 110.356 324.884 110.636 325.509 111.196C326.135 111.747 326.447 112.582 326.447 113.702V118H324.403V117.062C323.993 117.762 323.227 118.112 322.107 118.112C321.529 118.112 321.025 118.014 320.595 117.818C320.175 117.622 319.853 117.351 319.629 117.006C319.405 116.661 319.293 116.269 319.293 115.83C319.293 115.13 319.555 114.579 320.077 114.178C320.609 113.777 321.426 113.576 322.527 113.576H324.263C324.263 113.1 324.119 112.736 323.829 112.484C323.54 112.223 323.106 112.092 322.527 112.092C322.126 112.092 321.729 112.157 321.337 112.288C320.955 112.409 320.628 112.577 320.357 112.792L319.573 111.266C319.984 110.977 320.474 110.753 321.043 110.594C321.622 110.435 322.215 110.356 322.821 110.356ZM322.653 116.642C323.027 116.642 323.358 116.558 323.647 116.39C323.937 116.213 324.142 115.956 324.263 115.62V114.85H322.765C321.869 114.85 321.421 115.144 321.421 115.732C321.421 116.012 321.529 116.236 321.743 116.404C321.967 116.563 322.271 116.642 322.653 116.642ZM328.424 107.612H330.608V118H328.424V107.612ZM338.04 117.636C337.825 117.795 337.559 117.916 337.242 118C336.934 118.075 336.607 118.112 336.262 118.112C335.366 118.112 334.67 117.883 334.176 117.426C333.69 116.969 333.448 116.297 333.448 115.41V112.316H332.286V110.636H333.448V108.802H335.632V110.636H337.508V112.316H335.632V115.382C335.632 115.699 335.711 115.947 335.87 116.124C336.038 116.292 336.271 116.376 336.57 116.376C336.915 116.376 337.209 116.283 337.452 116.096L338.04 117.636Z" fill="black"/>
<path d="M228 69V91C228 93.7614 230.239 96 233 96H240" stroke="black"/>
<path d="M228 85V107C228 109.761 230.239 112 233 112H240" stroke="black"/>
<path d="M228 61V74C228 76.7614 230.239 79 233 79H240" stroke="black"/>
<path d="M59.382 14.168C58.6073 14.168 57.856 14.0653 57.128 13.86C56.4093 13.6453 55.8307 13.37 55.392 13.034L56.162 11.326C56.582 11.634 57.0813 11.8813 57.66 12.068C58.2387 12.2547 58.8173 12.348 59.396 12.348C60.04 12.348 60.516 12.2547 60.824 12.068C61.132 11.872 61.286 11.6153 61.286 11.298C61.286 11.0647 61.1927 10.8733 61.006 10.724C60.8287 10.5653 60.5953 10.4393 60.306 10.346C60.026 10.2527 59.6433 10.15 59.158 10.038C58.4113 9.86067 57.8 9.68333 57.324 9.506C56.848 9.32867 56.4373 9.044 56.092 8.652C55.756 8.26 55.588 7.73733 55.588 7.084C55.588 6.51467 55.742 6.00133 56.05 5.544C56.358 5.07733 56.82 4.70867 57.436 4.438C58.0613 4.16733 58.822 4.032 59.718 4.032C60.3433 4.032 60.9547 4.10667 61.552 4.256C62.1493 4.40533 62.672 4.62 63.12 4.9L62.42 6.622C61.5147 6.10867 60.6093 5.852 59.704 5.852C59.0693 5.852 58.598 5.95467 58.29 6.16C57.9913 6.36533 57.842 6.636 57.842 6.972C57.842 7.308 58.0147 7.56 58.36 7.728C58.7147 7.88667 59.2513 8.04533 59.97 8.204C60.7167 8.38133 61.328 8.55867 61.804 8.736C62.28 8.91333 62.686 9.19333 63.022 9.576C63.3673 9.95867 63.54 10.4767 63.54 11.13C63.54 11.69 63.3813 12.2033 63.064 12.67C62.756 13.1273 62.2893 13.4913 61.664 13.762C61.0387 14.0327 60.278 14.168 59.382 14.168ZM69.3877 6.356C70.0877 6.356 70.7224 6.51933 71.2917 6.846C71.8704 7.16333 72.3231 7.616 72.6497 8.204C72.9764 8.78267 73.1397 9.45933 73.1397 10.234C73.1397 11.0087 72.9764 11.69 72.6497 12.278C72.3231 12.8567 71.8704 13.3093 71.2917 13.636C70.7224 13.9533 70.0877 14.112 69.3877 14.112C68.4264 14.112 67.6704 13.8087 67.1197 13.202V16.716H64.9357V6.468H67.0217V7.336C67.5631 6.68267 68.3517 6.356 69.3877 6.356ZM69.0097 12.32C69.5697 12.32 70.0271 12.1333 70.3817 11.76C70.7457 11.3773 70.9277 10.8687 70.9277 10.234C70.9277 9.59933 70.7457 9.09533 70.3817 8.722C70.0271 8.33933 69.5697 8.148 69.0097 8.148C68.4497 8.148 67.9877 8.33933 67.6237 8.722C67.2691 9.09533 67.0917 9.59933 67.0917 10.234C67.0917 10.8687 67.2691 11.3773 67.6237 11.76C67.9877 12.1333 68.4497 12.32 69.0097 12.32ZM74.6018 6.468H76.7858V14H74.6018V6.468ZM75.6938 5.418C75.2924 5.418 74.9658 5.30133 74.7138 5.068C74.4618 4.83467 74.3358 4.54533 74.3358 4.2C74.3358 3.85467 74.4618 3.56533 74.7138 3.332C74.9658 3.09867 75.2924 2.982 75.6938 2.982C76.0951 2.982 76.4218 3.094 76.6738 3.318C76.9258 3.542 77.0518 3.822 77.0518 4.158C77.0518 4.522 76.9258 4.82533 76.6738 5.068C76.4218 5.30133 76.0951 5.418 75.6938 5.418ZM86.1907 10.262C86.1907 10.29 86.1767 10.486 86.1487 10.85H80.4507C80.5534 11.3167 80.796 11.6853 81.1787 11.956C81.5614 12.2267 82.0374 12.362 82.6067 12.362C82.9987 12.362 83.344 12.306 83.6427 12.194C83.9507 12.0727 84.2354 11.886 84.4967 11.634L85.6587 12.894C84.9494 13.706 83.9134 14.112 82.5507 14.112C81.7014 14.112 80.95 13.9487 80.2967 13.622C79.6434 13.286 79.1394 12.824 78.7847 12.236C78.43 11.648 78.2527 10.9807 78.2527 10.234C78.2527 9.49667 78.4254 8.834 78.7707 8.246C79.1254 7.64867 79.606 7.18667 80.2127 6.86C80.8287 6.524 81.5147 6.356 82.2707 6.356C83.008 6.356 83.6754 6.51467 84.2727 6.832C84.87 7.14933 85.3367 7.60667 85.6727 8.204C86.018 8.792 86.1907 9.478 86.1907 10.262ZM82.2847 8.008C81.79 8.008 81.3747 8.148 81.0387 8.428C80.7027 8.708 80.4974 9.09067 80.4227 9.576H84.1327C84.058 9.1 83.8527 8.722 83.5167 8.442C83.1807 8.15267 82.77 8.008 82.2847 8.008ZM95.4147 6.468V12.74C95.4147 14.1213 95.0554 15.148 94.3367 15.82C93.6181 16.492 92.5681 16.828 91.1867 16.828C90.4587 16.828 89.7681 16.7393 89.1147 16.562C88.4614 16.3847 87.9201 16.128 87.4907 15.792L88.3587 14.224C88.6761 14.4853 89.0774 14.6907 89.5627 14.84C90.0481 14.9987 90.5334 15.078 91.0187 15.078C91.7747 15.078 92.3301 14.9053 92.6847 14.56C93.0487 14.224 93.2307 13.7107 93.2307 13.02V12.698C92.6614 13.3233 91.8681 13.636 90.8507 13.636C90.1601 13.636 89.5254 13.4867 88.9467 13.188C88.3774 12.88 87.9247 12.4507 87.5887 11.9C87.2527 11.3493 87.0847 10.7147 87.0847 9.996C87.0847 9.27733 87.2527 8.64267 87.5887 8.092C87.9247 7.54133 88.3774 7.11667 88.9467 6.818C89.5254 6.51 90.1601 6.356 90.8507 6.356C91.9427 6.356 92.7734 6.71533 93.3427 7.434V6.468H95.4147ZM91.2847 11.844C91.8634 11.844 92.3347 11.676 92.6987 11.34C93.0721 10.9947 93.2587 10.5467 93.2587 9.996C93.2587 9.44533 93.0721 9.002 92.6987 8.666C92.3347 8.32067 91.8634 8.148 91.2847 8.148C90.7061 8.148 90.2301 8.32067 89.8567 8.666C89.4834 9.002 89.2967 9.44533 89.2967 9.996C89.2967 10.5467 89.4834 10.9947 89.8567 11.34C90.2301 11.676 90.7061 11.844 91.2847 11.844ZM104.825 10.262C104.825 10.29 104.811 10.486 104.783 10.85H99.0855C99.1881 11.3167 99.4308 11.6853 99.8135 11.956C100.196 12.2267 100.672 12.362 101.241 12.362C101.633 12.362 101.979 12.306 102.277 12.194C102.585 12.0727 102.87 11.886 103.131 11.634L104.293 12.894C103.584 13.706 102.548 14.112 101.185 14.112C100.336 14.112 99.5848 13.9487 98.9315 13.622C98.2781 13.286 97.7741 12.824 97.4195 12.236C97.0648 11.648 96.8875 10.9807 96.8875 10.234C96.8875 9.49667 97.0601 8.834 97.4055 8.246C97.7601 7.64867 98.2408 7.18667 98.8475 6.86C99.4635 6.524 100.149 6.356 100.905 6.356C101.643 6.356 102.31 6.51467 102.907 6.832C103.505 7.14933 103.971 7.60667 104.307 8.204C104.653 8.792 104.825 9.478 104.825 10.262ZM100.919 8.008C100.425 8.008 100.009 8.148 99.6735 8.428C99.3375 8.708 99.1321 9.09067 99.0575 9.576H102.767C102.693 9.1 102.487 8.722 102.151 8.442C101.815 8.15267 101.405 8.008 100.919 8.008ZM106.279 3.612H108.463V14H106.279V3.612Z" fill="black"/>
<rect x="1" y="25" width="168" height="98" rx="17" fill="white" stroke="#E64415" stroke-width="2"/>
<path d="M28.68 46.612V57H26.594V56.132C26.0527 56.7853 25.2687 57.112 24.242 57.112C23.5327 57.112 22.8887 56.9533 22.31 56.636C21.7407 56.3187 21.2927 55.866 20.966 55.278C20.6393 54.69 20.476 54.0087 20.476 53.234C20.476 52.4593 20.6393 51.778 20.966 51.19C21.2927 50.602 21.7407 50.1493 22.31 49.832C22.8887 49.5147 23.5327 49.356 24.242 49.356C25.2033 49.356 25.9547 49.6593 26.496 50.266V46.612H28.68ZM24.62 55.32C25.1707 55.32 25.628 55.1333 25.992 54.76C26.356 54.3773 26.538 53.8687 26.538 53.234C26.538 52.5993 26.356 52.0953 25.992 51.722C25.628 51.3393 25.1707 51.148 24.62 51.148C24.06 51.148 23.598 51.3393 23.234 51.722C22.87 52.0953 22.688 52.5993 22.688 53.234C22.688 53.8687 22.87 54.3773 23.234 54.76C23.598 55.1333 24.06 55.32 24.62 55.32ZM33.7394 49.356C34.906 49.356 35.802 49.636 36.4274 50.196C37.0527 50.7467 37.3654 51.582 37.3654 52.702V57H35.3214V56.062C34.9107 56.762 34.1454 57.112 33.0254 57.112C32.4467 57.112 31.9427 57.014 31.5134 56.818C31.0934 56.622 30.7714 56.3513 30.5474 56.006C30.3234 55.6607 30.2114 55.2687 30.2114 54.83C30.2114 54.13 30.4727 53.5793 30.9954 53.178C31.5274 52.7767 32.344 52.576 33.4454 52.576H35.1814C35.1814 52.1 35.0367 51.736 34.7474 51.484C34.458 51.2227 34.024 51.092 33.4454 51.092C33.044 51.092 32.6474 51.1573 32.2554 51.288C31.8727 51.4093 31.546 51.5773 31.2754 51.792L30.4914 50.266C30.902 49.9767 31.392 49.7527 31.9614 49.594C32.54 49.4353 33.1327 49.356 33.7394 49.356ZM33.5714 55.642C33.9447 55.642 34.276 55.558 34.5654 55.39C34.8547 55.2127 35.06 54.956 35.1814 54.62V53.85H33.6834C32.7874 53.85 32.3394 54.144 32.3394 54.732C32.3394 55.012 32.4467 55.236 32.6614 55.404C32.8854 55.5627 33.1887 55.642 33.5714 55.642ZM44.2 56.636C43.9853 56.7947 43.7193 56.916 43.402 57C43.094 57.0747 42.7673 57.112 42.422 57.112C41.526 57.112 40.8307 56.8833 40.336 56.426C39.8507 55.9687 39.608 55.2967 39.608 54.41V51.316H38.446V49.636H39.608V47.802H41.792V49.636H43.668V51.316H41.792V54.382C41.792 54.6993 41.8713 54.9467 42.03 55.124C42.198 55.292 42.4313 55.376 42.73 55.376C43.0753 55.376 43.3693 55.2827 43.612 55.096L44.2 56.636ZM53.014 49.468V57H50.942V56.104C50.6526 56.4307 50.3073 56.6827 49.906 56.86C49.5046 57.028 49.0706 57.112 48.604 57.112C47.6146 57.112 46.8306 56.8273 46.252 56.258C45.6733 55.6887 45.384 54.844 45.384 53.724V49.468H47.568V53.402C47.568 54.6153 48.0766 55.222 49.094 55.222C49.6166 55.222 50.0366 55.054 50.354 54.718C50.6713 54.3727 50.83 53.864 50.83 53.192V49.468H53.014ZM64.6833 49.356C65.626 49.356 66.3726 49.636 66.9233 50.196C67.4833 50.7467 67.7633 51.5773 67.7633 52.688V57H65.5793V53.024C65.5793 52.4267 65.4533 51.9833 65.2013 51.694C64.9586 51.3953 64.6086 51.246 64.1513 51.246C63.638 51.246 63.232 51.414 62.9333 51.75C62.6346 52.0767 62.4853 52.5667 62.4853 53.22V57H60.3013V53.024C60.3013 51.8387 59.8253 51.246 58.8733 51.246C58.3693 51.246 57.968 51.414 57.6693 51.75C57.3706 52.0767 57.2213 52.5667 57.2213 53.22V57H55.0373V49.468H57.1233V50.336C57.4033 50.0187 57.744 49.776 58.1453 49.608C58.556 49.44 59.004 49.356 59.4893 49.356C60.0213 49.356 60.502 49.4633 60.9313 49.678C61.3606 49.8833 61.706 50.1867 61.9673 50.588C62.2753 50.196 62.6626 49.8927 63.1293 49.678C63.6053 49.4633 64.1233 49.356 64.6833 49.356ZM70.5609 54.396C70.9529 54.396 71.2749 54.522 71.5269 54.774C71.7789 55.0167 71.9049 55.3387 71.9049 55.74C71.9049 55.9267 71.8816 56.1133 71.8349 56.3C71.7882 56.4867 71.6856 56.7667 71.5269 57.14L70.7289 59.156H69.3429L69.9589 56.93C69.7256 56.8367 69.5389 56.6873 69.3989 56.482C69.2682 56.2673 69.2029 56.02 69.2029 55.74C69.2029 55.3387 69.3289 55.0167 69.5809 54.774C69.8422 54.522 70.1689 54.396 70.5609 54.396ZM84.9938 49.468V59.716H82.8098V56.202C82.2685 56.8087 81.5171 57.112 80.5558 57.112C79.8465 57.112 79.2025 56.9533 78.6238 56.636C78.0545 56.3187 77.6065 55.866 77.2798 55.278C76.9531 54.69 76.7898 54.0087 76.7898 53.234C76.7898 52.4593 76.9531 51.778 77.2798 51.19C77.6065 50.602 78.0545 50.1493 78.6238 49.832C79.2025 49.5147 79.8465 49.356 80.5558 49.356C81.5825 49.356 82.3665 49.6827 82.9078 50.336V49.468H84.9938ZM80.9338 55.32C81.4845 55.32 81.9418 55.1333 82.3058 54.76C82.6698 54.3773 82.8518 53.8687 82.8518 53.234C82.8518 52.5993 82.6698 52.0953 82.3058 51.722C81.9418 51.3393 81.4845 51.148 80.9338 51.148C80.3738 51.148 79.9118 51.3393 79.5478 51.722C79.1838 52.0953 79.0018 52.5993 79.0018 53.234C79.0018 53.8687 79.1838 54.3773 79.5478 54.76C79.9118 55.1333 80.3738 55.32 80.9338 55.32ZM94.6038 49.468V57H92.5318V56.104C92.2425 56.4307 91.8971 56.6827 91.4958 56.86C91.0945 57.028 90.6605 57.112 90.1938 57.112C89.2045 57.112 88.4205 56.8273 87.8418 56.258C87.2631 55.6887 86.9738 54.844 86.9738 53.724V49.468H89.1578V53.402C89.1578 54.6153 89.6665 55.222 90.6838 55.222C91.2065 55.222 91.6265 55.054 91.9438 54.718C92.2611 54.3727 92.4198 53.864 92.4198 53.192V49.468H94.6038ZM104.005 53.262C104.005 53.29 103.991 53.486 103.963 53.85H98.2651C98.3678 54.3167 98.6105 54.6853 98.9931 54.956C99.3758 55.2267 99.8518 55.362 100.421 55.362C100.813 55.362 101.158 55.306 101.457 55.194C101.765 55.0727 102.05 54.886 102.311 54.634L103.473 55.894C102.764 56.706 101.728 57.112 100.365 57.112C99.5158 57.112 98.7645 56.9487 98.1111 56.622C97.4578 56.286 96.9538 55.824 96.5991 55.236C96.2445 54.648 96.0671 53.9807 96.0671 53.234C96.0671 52.4967 96.2398 51.834 96.5851 51.246C96.9398 50.6487 97.4205 50.1867 98.0271 49.86C98.6431 49.524 99.3291 49.356 100.085 49.356C100.822 49.356 101.49 49.5147 102.087 49.832C102.684 50.1493 103.151 50.6067 103.487 51.204C103.832 51.792 104.005 52.478 104.005 53.262ZM100.099 51.008C99.6045 51.008 99.1891 51.148 98.8531 51.428C98.5171 51.708 98.3118 52.0907 98.2371 52.576H101.947C101.872 52.1 101.667 51.722 101.331 51.442C100.995 51.1527 100.584 51.008 100.099 51.008ZM105.459 46.612H107.643V57H105.459V46.612ZM109.67 46.612H111.854V57H109.67V46.612ZM121.259 53.262C121.259 53.29 121.245 53.486 121.217 53.85H115.519C115.622 54.3167 115.864 54.6853 116.247 54.956C116.63 55.2267 117.106 55.362 117.675 55.362C118.067 55.362 118.412 55.306 118.711 55.194C119.019 55.0727 119.304 54.886 119.565 54.634L120.727 55.894C120.018 56.706 118.982 57.112 117.619 57.112C116.77 57.112 116.018 56.9487 115.365 56.622C114.712 56.286 114.208 55.824 113.853 55.236C113.498 54.648 113.321 53.9807 113.321 53.234C113.321 52.4967 113.494 51.834 113.839 51.246C114.194 50.6487 114.674 50.1867 115.281 49.86C115.897 49.524 116.583 49.356 117.339 49.356C118.076 49.356 118.744 49.5147 119.341 49.832C119.938 50.1493 120.405 50.6067 120.741 51.204C121.086 51.792 121.259 52.478 121.259 53.262ZM117.353 51.008C116.858 51.008 116.443 51.148 116.107 51.428C115.771 51.708 115.566 52.0907 115.491 52.576H119.201C119.126 52.1 118.921 51.722 118.585 51.442C118.249 51.1527 117.838 51.008 117.353 51.008ZM123.539 57.112C123.156 57.112 122.834 56.9813 122.573 56.72C122.312 56.4587 122.181 56.132 122.181 55.74C122.181 55.3387 122.312 55.0167 122.573 54.774C122.834 54.522 123.156 54.396 123.539 54.396C123.922 54.396 124.244 54.522 124.505 54.774C124.766 55.0167 124.897 55.3387 124.897 55.74C124.897 56.132 124.766 56.4587 124.505 56.72C124.244 56.9813 123.922 57.112 123.539 57.112ZM131.18 56.636C130.966 56.7947 130.7 56.916 130.382 57C130.074 57.0747 129.748 57.112 129.402 57.112C128.506 57.112 127.811 56.8833 127.316 56.426C126.831 55.9687 126.588 55.2967 126.588 54.41V51.316H125.426V49.636H126.588V47.802H128.772V49.636H130.648V51.316H128.772V54.382C128.772 54.6993 128.852 54.9467 129.01 55.124C129.178 55.292 129.412 55.376 129.71 55.376C130.056 55.376 130.35 55.2827 130.592 55.096L131.18 56.636ZM137.194 57L135.542 54.69L133.834 57H131.454L134.352 53.206L131.552 49.468H134.002L135.598 51.666L137.236 49.468H139.56L136.76 53.15L139.672 57H137.194ZM145.591 56.636C145.376 56.7947 145.11 56.916 144.793 57C144.485 57.0747 144.158 57.112 143.813 57.112C142.917 57.112 142.221 56.8833 141.727 56.426C141.241 55.9687 140.999 55.2967 140.999 54.41V51.316H139.837V49.636H140.999V47.802H143.183V49.636H145.059V51.316H143.183V54.382C143.183 54.6993 143.262 54.9467 143.421 55.124C143.589 55.292 143.822 55.376 144.121 55.376C144.466 55.376 144.76 55.2827 145.003 55.096L145.591 56.636Z" fill="black"/>
<path d="M48.15 74.2V84H45.882V79.982H41.43V84H39.162V74.2H41.43V78.064H45.882V74.2H48.15ZM57.6926 80.262C57.6926 80.29 57.6786 80.486 57.6506 80.85H51.9526C52.0553 81.3167 52.298 81.6853 52.6806 81.956C53.0633 82.2267 53.5393 82.362 54.1086 82.362C54.5006 82.362 54.846 82.306 55.1446 82.194C55.4526 82.0727 55.7373 81.886 55.9986 81.634L57.1606 82.894C56.4513 83.706 55.4153 84.112 54.0526 84.112C53.2033 84.112 52.452 83.9487 51.7986 83.622C51.1453 83.286 50.6413 82.824 50.2866 82.236C49.932 81.648 49.7546 80.9807 49.7546 80.234C49.7546 79.4967 49.9273 78.834 50.2726 78.246C50.6273 77.6487 51.108 77.1867 51.7146 76.86C52.3306 76.524 53.0166 76.356 53.7726 76.356C54.51 76.356 55.1773 76.5147 55.7746 76.832C56.372 77.1493 56.8386 77.6067 57.1746 78.204C57.52 78.792 57.6926 79.478 57.6926 80.262ZM53.7866 78.008C53.292 78.008 52.8766 78.148 52.5406 78.428C52.2046 78.708 51.9993 79.0907 51.9246 79.576H55.6346C55.56 79.1 55.3546 78.722 55.0186 78.442C54.6826 78.1527 54.272 78.008 53.7866 78.008ZM61.9796 76.356C63.1463 76.356 64.0423 76.636 64.6676 77.196C65.2929 77.7467 65.6056 78.582 65.6056 79.702V84H63.5616V83.062C63.1509 83.762 62.3856 84.112 61.2656 84.112C60.6869 84.112 60.1829 84.014 59.7536 83.818C59.3336 83.622 59.0116 83.3513 58.7876 83.006C58.5636 82.6607 58.4516 82.2687 58.4516 81.83C58.4516 81.13 58.7129 80.5793 59.2356 80.178C59.7676 79.7767 60.5843 79.576 61.6856 79.576H63.4216C63.4216 79.1 63.2769 78.736 62.9876 78.484C62.6983 78.2227 62.2643 78.092 61.6856 78.092C61.2843 78.092 60.8876 78.1573 60.4956 78.288C60.1129 78.4093 59.7863 78.5773 59.5156 78.792L58.7316 77.266C59.1423 76.9767 59.6323 76.7527 60.2016 76.594C60.7803 76.4353 61.3729 76.356 61.9796 76.356ZM61.8116 82.642C62.1849 82.642 62.5163 82.558 62.8056 82.39C63.0949 82.2127 63.3003 81.956 63.4216 81.62V80.85H61.9236C61.0276 80.85 60.5796 81.144 60.5796 81.732C60.5796 82.012 60.6869 82.236 60.9016 82.404C61.1256 82.5627 61.4289 82.642 61.8116 82.642ZM75.3363 73.612V84H73.2503V83.132C72.7089 83.7853 71.9249 84.112 70.8983 84.112C70.1889 84.112 69.5449 83.9533 68.9663 83.636C68.3969 83.3187 67.9489 82.866 67.6223 82.278C67.2956 81.69 67.1323 81.0087 67.1323 80.234C67.1323 79.4593 67.2956 78.778 67.6223 78.19C67.9489 77.602 68.3969 77.1493 68.9663 76.832C69.5449 76.5147 70.1889 76.356 70.8983 76.356C71.8596 76.356 72.6109 76.6593 73.1523 77.266V73.612H75.3363ZM71.2763 82.32C71.8269 82.32 72.2843 82.1333 72.6483 81.76C73.0123 81.3773 73.1943 80.8687 73.1943 80.234C73.1943 79.5993 73.0123 79.0953 72.6483 78.722C72.2843 78.3393 71.8269 78.148 71.2763 78.148C70.7163 78.148 70.2543 78.3393 69.8903 78.722C69.5263 79.0953 69.3443 79.5993 69.3443 80.234C69.3443 80.8687 69.5263 81.3773 69.8903 81.76C70.2543 82.1333 70.7163 82.32 71.2763 82.32ZM77.3576 73.612H79.5416V84H77.3576V73.612ZM81.5685 76.468H83.7525V84H81.5685V76.468ZM82.6605 75.418C82.2592 75.418 81.9325 75.3013 81.6805 75.068C81.4285 74.8347 81.3025 74.5453 81.3025 74.2C81.3025 73.8547 81.4285 73.5653 81.6805 73.332C81.9325 73.0987 82.2592 72.982 82.6605 72.982C83.0619 72.982 83.3885 73.094 83.6405 73.318C83.8925 73.542 84.0185 73.822 84.0185 74.158C84.0185 74.522 83.8925 74.8253 83.6405 75.068C83.3885 75.3013 83.0619 75.418 82.6605 75.418ZM90.3575 76.356C91.2908 76.356 92.0422 76.636 92.6115 77.196C93.1902 77.756 93.4795 78.5867 93.4795 79.688V84H91.2955V80.024C91.2955 79.4267 91.1648 78.9833 90.9035 78.694C90.6422 78.3953 90.2642 78.246 89.7695 78.246C89.2188 78.246 88.7802 78.4187 88.4535 78.764C88.1268 79.1 87.9635 79.604 87.9635 80.276V84H85.7795V76.468H87.8655V77.35C88.1548 77.0327 88.5142 76.79 88.9435 76.622C89.3728 76.4447 89.8442 76.356 90.3575 76.356ZM102.919 80.262C102.919 80.29 102.905 80.486 102.877 80.85H97.1792C97.2819 81.3167 97.5245 81.6853 97.9072 81.956C98.2899 82.2267 98.7659 82.362 99.3352 82.362C99.7272 82.362 100.073 82.306 100.371 82.194C100.679 82.0727 100.964 81.886 101.225 81.634L102.387 82.894C101.678 83.706 100.642 84.112 99.2792 84.112C98.4299 84.112 97.6785 83.9487 97.0252 83.622C96.3719 83.286 95.8679 82.824 95.5132 82.236C95.1585 81.648 94.9812 80.9807 94.9812 80.234C94.9812 79.4967 95.1539 78.834 95.4992 78.246C95.8539 77.6487 96.3345 77.1867 96.9412 76.86C97.5572 76.524 98.2432 76.356 98.9992 76.356C99.7365 76.356 100.404 76.5147 101.001 76.832C101.599 77.1493 102.065 77.6067 102.401 78.204C102.747 78.792 102.919 79.478 102.919 80.262ZM99.0132 78.008C98.5185 78.008 98.1032 78.148 97.7672 78.428C97.4312 78.708 97.2259 79.0907 97.1512 79.576H100.861C100.787 79.1 100.581 78.722 100.245 78.442C99.9092 78.1527 99.4985 78.008 99.0132 78.008ZM39.162 91.2H41.43V99.152H46.344V101H39.162V91.2ZM54.7805 97.262C54.7805 97.29 54.7665 97.486 54.7385 97.85H49.0405C49.1432 98.3167 49.3859 98.6853 49.7685 98.956C50.1512 99.2267 50.6272 99.362 51.1965 99.362C51.5885 99.362 51.9339 99.306 52.2325 99.194C52.5405 99.0727 52.8252 98.886 53.0865 98.634L54.2485 99.894C53.5392 100.706 52.5032 101.112 51.1405 101.112C50.2912 101.112 49.5399 100.949 48.8865 100.622C48.2332 100.286 47.7292 99.824 47.3745 99.236C47.0199 98.648 46.8425 97.9807 46.8425 97.234C46.8425 96.4967 47.0152 95.834 47.3605 95.246C47.7152 94.6487 48.1959 94.1867 48.8025 93.86C49.4185 93.524 50.1045 93.356 50.8605 93.356C51.5979 93.356 52.2652 93.5147 52.8625 93.832C53.4599 94.1493 53.9265 94.6067 54.2625 95.204C54.6079 95.792 54.7805 96.478 54.7805 97.262ZM50.8745 95.008C50.3799 95.008 49.9645 95.148 49.6285 95.428C49.2925 95.708 49.0872 96.0907 49.0125 96.576H52.7225C52.6479 96.1 52.4425 95.722 52.1065 95.442C51.7705 95.1527 51.3599 95.008 50.8745 95.008ZM59.0675 93.356C60.2342 93.356 61.1302 93.636 61.7555 94.196C62.3808 94.7467 62.6935 95.582 62.6935 96.702V101H60.6495V100.062C60.2388 100.762 59.4735 101.112 58.3535 101.112C57.7748 101.112 57.2708 101.014 56.8415 100.818C56.4215 100.622 56.0995 100.351 55.8755 100.006C55.6515 99.6607 55.5395 99.2687 55.5395 98.83C55.5395 98.13 55.8008 97.5793 56.3235 97.178C56.8555 96.7767 57.6722 96.576 58.7735 96.576H60.5095C60.5095 96.1 60.3648 95.736 60.0755 95.484C59.7862 95.2227 59.3522 95.092 58.7735 95.092C58.3722 95.092 57.9755 95.1573 57.5835 95.288C57.2008 95.4093 56.8742 95.5773 56.6035 95.792L55.8195 94.266C56.2302 93.9767 56.7202 93.7527 57.2895 93.594C57.8682 93.4353 58.4608 93.356 59.0675 93.356ZM58.8995 99.642C59.2728 99.642 59.6042 99.558 59.8935 99.39C60.1828 99.2127 60.3882 98.956 60.5095 98.62V97.85H59.0115C58.1155 97.85 57.6675 98.144 57.6675 98.732C57.6675 99.012 57.7748 99.236 57.9895 99.404C58.2135 99.5627 58.5168 99.642 58.8995 99.642ZM72.4241 90.612V101H70.3381V100.132C69.7968 100.785 69.0128 101.112 67.9861 101.112C67.2768 101.112 66.6328 100.953 66.0541 100.636C65.4848 100.319 65.0368 99.866 64.7101 99.278C64.3835 98.69 64.2201 98.0087 64.2201 97.234C64.2201 96.4593 64.3835 95.778 64.7101 95.19C65.0368 94.602 65.4848 94.1493 66.0541 93.832C66.6328 93.5147 67.2768 93.356 67.9861 93.356C68.9475 93.356 69.6988 93.6593 70.2401 94.266V90.612H72.4241ZM68.3641 99.32C68.9148 99.32 69.3721 99.1333 69.7361 98.76C70.1001 98.3773 70.2821 97.8687 70.2821 97.234C70.2821 96.5993 70.1001 96.0953 69.7361 95.722C69.3721 95.3393 68.9148 95.148 68.3641 95.148C67.8041 95.148 67.3421 95.3393 66.9781 95.722C66.6141 96.0953 66.4321 96.5993 66.4321 97.234C66.4321 97.8687 66.6141 98.3773 66.9781 98.76C67.3421 99.1333 67.8041 99.32 68.3641 99.32ZM74.5995 91.2H76.8675V101H74.5995V91.2ZM83.6173 93.356C84.5506 93.356 85.3019 93.636 85.8713 94.196C86.4499 94.756 86.7393 95.5867 86.7393 96.688V101H84.5553V97.024C84.5553 96.4267 84.4246 95.9833 84.1633 95.694C83.9019 95.3953 83.5239 95.246 83.0293 95.246C82.4786 95.246 82.0399 95.4187 81.7133 95.764C81.3866 96.1 81.2233 96.604 81.2233 97.276V101H79.0393V93.468H81.1253V94.35C81.4146 94.0327 81.7739 93.79 82.2033 93.622C82.6326 93.4447 83.1039 93.356 83.6173 93.356Z" fill="black"/>
<path d="M25 62V74C25 76.7614 27.2386 79 30 79H37" stroke="black"/>
<path d="M25 70V92C25 94.7614 27.2386 97 30 97H37" stroke="black"/>
<path d="M442.207 4.2H446.659C447.723 4.2 448.661 4.40533 449.473 4.816C450.294 5.21733 450.929 5.78667 451.377 6.524C451.834 7.26133 452.063 8.12 452.063 9.1C452.063 10.08 451.834 10.9387 451.377 11.676C450.929 12.4133 450.294 12.9873 449.473 13.398C448.661 13.7993 447.723 14 446.659 14H442.207V4.2ZM446.547 12.138C447.527 12.138 448.306 11.8673 448.885 11.326C449.473 10.7753 449.767 10.0333 449.767 9.1C449.767 8.16667 449.473 7.42933 448.885 6.888C448.306 6.33733 447.527 6.062 446.547 6.062H444.475V12.138H446.547ZM460.997 10.262C460.997 10.29 460.983 10.486 460.955 10.85H455.257C455.36 11.3167 455.603 11.6853 455.985 11.956C456.368 12.2267 456.844 12.362 457.413 12.362C457.805 12.362 458.151 12.306 458.449 12.194C458.757 12.0727 459.042 11.886 459.303 11.634L460.465 12.894C459.756 13.706 458.72 14.112 457.357 14.112C456.508 14.112 455.757 13.9487 455.103 13.622C454.45 13.286 453.946 12.824 453.591 12.236C453.237 11.648 453.059 10.9807 453.059 10.234C453.059 9.49667 453.232 8.834 453.577 8.246C453.932 7.64867 454.413 7.18667 455.019 6.86C455.635 6.524 456.321 6.356 457.077 6.356C457.815 6.356 458.482 6.51467 459.079 6.832C459.677 7.14933 460.143 7.60667 460.479 8.204C460.825 8.792 460.997 9.478 460.997 10.262ZM457.091 8.008C456.597 8.008 456.181 8.148 455.845 8.428C455.509 8.708 455.304 9.09067 455.229 9.576H458.939C458.865 9.1 458.659 8.722 458.323 8.442C457.987 8.15267 457.577 8.008 457.091 8.008ZM470.039 6.468V14H467.967V13.104C467.678 13.4307 467.333 13.6827 466.931 13.86C466.53 14.028 466.096 14.112 465.629 14.112C464.64 14.112 463.856 13.8273 463.277 13.258C462.699 12.6887 462.409 11.844 462.409 10.724V6.468H464.593V10.402C464.593 11.6153 465.102 12.222 466.119 12.222C466.642 12.222 467.062 12.054 467.379 11.718C467.697 11.3727 467.855 10.864 467.855 10.192V6.468H470.039ZM476.921 13.636C476.706 13.7947 476.44 13.916 476.123 14C475.815 14.0747 475.488 14.112 475.143 14.112C474.247 14.112 473.551 13.8833 473.057 13.426C472.571 12.9687 472.329 12.2967 472.329 11.41V8.316H471.167V6.636H472.329V4.802H474.513V6.636H476.389V8.316H474.513V11.382C474.513 11.6993 474.592 11.9467 474.751 12.124C474.919 12.292 475.152 12.376 475.451 12.376C475.796 12.376 476.09 12.2827 476.333 12.096L476.921 13.636ZM480.681 14.112C480.055 14.112 479.444 14.0373 478.847 13.888C478.249 13.7293 477.773 13.5333 477.419 13.3L478.147 11.732C478.483 11.9467 478.889 12.124 479.365 12.264C479.841 12.3947 480.307 12.46 480.765 12.46C481.689 12.46 482.151 12.2313 482.151 11.774C482.151 11.5593 482.025 11.4053 481.773 11.312C481.521 11.2187 481.133 11.1393 480.611 11.074C479.995 10.9807 479.486 10.8733 479.085 10.752C478.683 10.6307 478.333 10.416 478.035 10.108C477.745 9.8 477.601 9.36133 477.601 8.792C477.601 8.316 477.736 7.896 478.007 7.532C478.287 7.15867 478.688 6.86933 479.211 6.664C479.743 6.45867 480.368 6.356 481.087 6.356C481.619 6.356 482.146 6.41667 482.669 6.538C483.201 6.65 483.639 6.80867 483.985 7.014L483.257 8.568C482.594 8.19467 481.871 8.008 481.087 8.008C480.62 8.008 480.27 8.07333 480.037 8.204C479.803 8.33467 479.687 8.50267 479.687 8.708C479.687 8.94133 479.813 9.10467 480.065 9.198C480.317 9.29133 480.718 9.38 481.269 9.464C481.885 9.56667 482.389 9.67867 482.781 9.8C483.173 9.912 483.513 10.122 483.803 10.43C484.092 10.738 484.237 11.1673 484.237 11.718C484.237 12.1847 484.097 12.6 483.817 12.964C483.537 13.328 483.126 13.6127 482.585 13.818C482.053 14.014 481.418 14.112 480.681 14.112ZM489.224 14.112C488.422 14.112 487.698 13.9487 487.054 13.622C486.42 13.286 485.92 12.824 485.556 12.236C485.202 11.648 485.024 10.9807 485.024 10.234C485.024 9.48733 485.202 8.82 485.556 8.232C485.92 7.644 486.42 7.18667 487.054 6.86C487.698 6.524 488.422 6.356 489.224 6.356C490.018 6.356 490.708 6.524 491.296 6.86C491.894 7.18667 492.328 7.658 492.598 8.274L490.904 9.184C490.512 8.49333 489.948 8.148 489.21 8.148C488.641 8.148 488.17 8.33467 487.796 8.708C487.423 9.08133 487.236 9.59 487.236 10.234C487.236 10.878 487.423 11.3867 487.796 11.76C488.17 12.1333 488.641 12.32 489.21 12.32C489.957 12.32 490.522 11.9747 490.904 11.284L492.598 12.208C492.328 12.8053 491.894 13.272 491.296 13.608C490.708 13.944 490.018 14.112 489.224 14.112ZM498.379 6.356C499.312 6.356 500.064 6.636 500.633 7.196C501.212 7.756 501.501 8.58667 501.501 9.688V14H499.317V10.024C499.317 9.42667 499.186 8.98333 498.925 8.694C498.664 8.39533 498.286 8.246 497.791 8.246C497.24 8.246 496.802 8.41867 496.475 8.764C496.148 9.1 495.985 9.604 495.985 10.276V14H493.801V3.612H495.985V7.252C496.274 6.96267 496.624 6.74333 497.035 6.594C497.446 6.43533 497.894 6.356 498.379 6.356ZM510.941 10.262C510.941 10.29 510.927 10.486 510.899 10.85H505.201C505.303 11.3167 505.546 11.6853 505.929 11.956C506.311 12.2267 506.787 12.362 507.357 12.362C507.749 12.362 508.094 12.306 508.393 12.194C508.701 12.0727 508.985 11.886 509.247 11.634L510.409 12.894C509.699 13.706 508.663 14.112 507.301 14.112C506.451 14.112 505.7 13.9487 505.047 13.622C504.393 13.286 503.889 12.824 503.535 12.236C503.18 11.648 503.003 10.9807 503.003 10.234C503.003 9.49667 503.175 8.834 503.521 8.246C503.875 7.64867 504.356 7.18667 504.963 6.86C505.579 6.524 506.265 6.356 507.021 6.356C507.758 6.356 508.425 6.51467 509.023 6.832C509.62 7.14933 510.087 7.60667 510.423 8.204C510.768 8.792 510.941 9.478 510.941 10.262ZM507.035 8.008C506.54 8.008 506.125 8.148 505.789 8.428C505.453 8.708 505.247 9.09067 505.173 9.576H508.883C508.808 9.1 508.603 8.722 508.267 8.442C507.931 8.15267 507.52 8.008 507.035 8.008ZM531.326 4.2L528.12 14H525.684L523.528 7.364L521.302 14H518.88L515.66 4.2H518.012L520.224 11.088L522.534 4.2H524.634L526.874 11.144L529.156 4.2H531.326ZM539.255 10.262C539.255 10.29 539.241 10.486 539.213 10.85H533.515C533.618 11.3167 533.86 11.6853 534.243 11.956C534.626 12.2267 535.102 12.362 535.671 12.362C536.063 12.362 536.408 12.306 536.707 12.194C537.015 12.0727 537.3 11.886 537.561 11.634L538.723 12.894C538.014 13.706 536.978 14.112 535.615 14.112C534.766 14.112 534.014 13.9487 533.361 13.622C532.708 13.286 532.204 12.824 531.849 12.236C531.494 11.648 531.317 10.9807 531.317 10.234C531.317 9.49667 531.49 8.834 531.835 8.246C532.19 7.64867 532.67 7.18667 533.277 6.86C533.893 6.524 534.579 6.356 535.335 6.356C536.072 6.356 536.74 6.51467 537.337 6.832C537.934 7.14933 538.401 7.60667 538.737 8.204C539.082 8.792 539.255 9.478 539.255 10.262ZM535.349 8.008C534.854 8.008 534.439 8.148 534.103 8.428C533.767 8.708 533.562 9.09067 533.487 9.576H537.197C537.122 9.1 536.917 8.722 536.581 8.442C536.245 8.15267 535.834 8.008 535.349 8.008ZM540.709 3.612H542.893V14H540.709V3.612ZM544.92 3.612H547.104V14H544.92V3.612ZM556.509 10.262C556.509 10.29 556.495 10.486 556.467 10.85H550.769C550.872 11.3167 551.114 11.6853 551.497 11.956C551.88 12.2267 552.356 12.362 552.925 12.362C553.317 12.362 553.662 12.306 553.961 12.194C554.269 12.0727 554.554 11.886 554.815 11.634L555.977 12.894C555.268 13.706 554.232 14.112 552.869 14.112C552.02 14.112 551.268 13.9487 550.615 13.622C549.962 13.286 549.458 12.824 549.103 12.236C548.748 11.648 548.571 10.9807 548.571 10.234C548.571 9.49667 548.744 8.834 549.089 8.246C549.444 7.64867 549.924 7.18667 550.531 6.86C551.147 6.524 551.833 6.356 552.589 6.356C553.326 6.356 553.994 6.51467 554.591 6.832C555.188 7.14933 555.655 7.60667 555.991 8.204C556.336 8.792 556.509 9.478 556.509 10.262ZM552.603 8.008C552.108 8.008 551.693 8.148 551.357 8.428C551.021 8.708 550.816 9.09067 550.741 9.576H554.451C554.376 9.1 554.171 8.722 553.835 8.442C553.499 8.15267 553.088 8.008 552.603 8.008Z" fill="black"/>
<path d="M434 25H568C577.389 25 585 32.6112 585 42V106C585 115.389 577.389 123 568 123H434C424.611 123 417 115.389 417 106V42C417 32.6112 424.611 25 434 25Z" fill="white" stroke="#002D5A" stroke-width="2"/>
<path d="M444.68 46.612V57H442.594V56.132C442.053 56.7853 441.269 57.112 440.242 57.112C439.533 57.112 438.889 56.9533 438.31 56.636C437.741 56.3187 437.293 55.866 436.966 55.278C436.639 54.69 436.476 54.0087 436.476 53.234C436.476 52.4593 436.639 51.778 436.966 51.19C437.293 50.602 437.741 50.1493 438.31 49.832C438.889 49.5147 439.533 49.356 440.242 49.356C441.203 49.356 441.955 49.6593 442.496 50.266V46.612H444.68ZM440.62 55.32C441.171 55.32 441.628 55.1333 441.992 54.76C442.356 54.3773 442.538 53.8687 442.538 53.234C442.538 52.5993 442.356 52.0953 441.992 51.722C441.628 51.3393 441.171 51.148 440.62 51.148C440.06 51.148 439.598 51.3393 439.234 51.722C438.87 52.0953 438.688 52.5993 438.688 53.234C438.688 53.8687 438.87 54.3773 439.234 54.76C439.598 55.1333 440.06 55.32 440.62 55.32ZM449.739 49.356C450.906 49.356 451.802 49.636 452.427 50.196C453.053 50.7467 453.365 51.582 453.365 52.702V57H451.321V56.062C450.911 56.762 450.145 57.112 449.025 57.112C448.447 57.112 447.943 57.014 447.513 56.818C447.093 56.622 446.771 56.3513 446.547 56.006C446.323 55.6607 446.211 55.2687 446.211 54.83C446.211 54.13 446.473 53.5793 446.995 53.178C447.527 52.7767 448.344 52.576 449.445 52.576H451.181C451.181 52.1 451.037 51.736 450.747 51.484C450.458 51.2227 450.024 51.092 449.445 51.092C449.044 51.092 448.647 51.1573 448.255 51.288C447.873 51.4093 447.546 51.5773 447.275 51.792L446.491 50.266C446.902 49.9767 447.392 49.7527 447.961 49.594C448.54 49.4353 449.133 49.356 449.739 49.356ZM449.571 55.642C449.945 55.642 450.276 55.558 450.565 55.39C450.855 55.2127 451.06 54.956 451.181 54.62V53.85H449.683C448.787 53.85 448.339 54.144 448.339 54.732C448.339 55.012 448.447 55.236 448.661 55.404C448.885 55.5627 449.189 55.642 449.571 55.642ZM460.2 56.636C459.985 56.7947 459.719 56.916 459.402 57C459.094 57.0747 458.767 57.112 458.422 57.112C457.526 57.112 456.831 56.8833 456.336 56.426C455.851 55.9687 455.608 55.2967 455.608 54.41V51.316H454.446V49.636H455.608V47.802H457.792V49.636H459.668V51.316H457.792V54.382C457.792 54.6993 457.871 54.9467 458.03 55.124C458.198 55.292 458.431 55.376 458.73 55.376C459.075 55.376 459.369 55.2827 459.612 55.096L460.2 56.636ZM469.014 49.468V57H466.942V56.104C466.653 56.4307 466.307 56.6827 465.906 56.86C465.505 57.028 465.071 57.112 464.604 57.112C463.615 57.112 462.831 56.8273 462.252 56.258C461.673 55.6887 461.384 54.844 461.384 53.724V49.468H463.568V53.402C463.568 54.6153 464.077 55.222 465.094 55.222C465.617 55.222 466.037 55.054 466.354 54.718C466.671 54.3727 466.83 53.864 466.83 53.192V49.468H469.014ZM480.683 49.356C481.626 49.356 482.373 49.636 482.923 50.196C483.483 50.7467 483.763 51.5773 483.763 52.688V57H481.579V53.024C481.579 52.4267 481.453 51.9833 481.201 51.694C480.959 51.3953 480.609 51.246 480.151 51.246C479.638 51.246 479.232 51.414 478.933 51.75C478.635 52.0767 478.485 52.5667 478.485 53.22V57H476.301V53.024C476.301 51.8387 475.825 51.246 474.873 51.246C474.369 51.246 473.968 51.414 473.669 51.75C473.371 52.0767 473.221 52.5667 473.221 53.22V57H471.037V49.468H473.123V50.336C473.403 50.0187 473.744 49.776 474.145 49.608C474.556 49.44 475.004 49.356 475.489 49.356C476.021 49.356 476.502 49.4633 476.931 49.678C477.361 49.8833 477.706 50.1867 477.967 50.588C478.275 50.196 478.663 49.8927 479.129 49.678C479.605 49.4633 480.123 49.356 480.683 49.356ZM486.547 57.112C486.164 57.112 485.842 56.9813 485.581 56.72C485.32 56.4587 485.189 56.132 485.189 55.74C485.189 55.3387 485.32 55.0167 485.581 54.774C485.842 54.522 486.164 54.396 486.547 54.396C486.93 54.396 487.252 54.522 487.513 54.774C487.774 55.0167 487.905 55.3387 487.905 55.74C487.905 56.132 487.774 56.4587 487.513 56.72C487.252 56.9813 486.93 57.112 486.547 57.112ZM494.188 56.636C493.974 56.7947 493.708 56.916 493.39 57C493.082 57.0747 492.756 57.112 492.41 57.112C491.514 57.112 490.819 56.8833 490.324 56.426C489.839 55.9687 489.596 55.2967 489.596 54.41V51.316H488.434V49.636H489.596V47.802H491.78V49.636H493.656V51.316H491.78V54.382C491.78 54.6993 491.86 54.9467 492.018 55.124C492.186 55.292 492.42 55.376 492.718 55.376C493.064 55.376 493.358 55.2827 493.6 55.096L494.188 56.636ZM500.202 57L498.55 54.69L496.842 57H494.462L497.36 53.206L494.56 49.468H497.01L498.606 51.666L500.244 49.468H502.568L499.768 53.15L502.68 57H500.202ZM508.598 56.636C508.384 56.7947 508.118 56.916 507.8 57C507.492 57.0747 507.166 57.112 506.82 57.112C505.924 57.112 505.229 56.8833 504.734 56.426C504.249 55.9687 504.006 55.2967 504.006 54.41V51.316H502.844V49.636H504.006V47.802H506.19V49.636H508.066V51.316H506.19V54.382C506.19 54.6993 506.27 54.9467 506.428 55.124C506.596 55.292 506.83 55.376 507.128 55.376C507.474 55.376 507.768 55.2827 508.01 55.096L508.598 56.636Z" fill="black"/>
<path d="M464.15 74.2V84H461.882V79.982H457.43V84H455.162V74.2H457.43V78.064H461.882V74.2H464.15ZM473.693 80.262C473.693 80.29 473.679 80.486 473.651 80.85H467.953C468.055 81.3167 468.298 81.6853 468.681 81.956C469.063 82.2267 469.539 82.362 470.109 82.362C470.501 82.362 470.846 82.306 471.145 82.194C471.453 82.0727 471.737 81.886 471.999 81.634L473.161 82.894C472.451 83.706 471.415 84.112 470.053 84.112C469.203 84.112 468.452 83.9487 467.799 83.622C467.145 83.286 466.641 82.824 466.287 82.236C465.932 81.648 465.755 80.9807 465.755 80.234C465.755 79.4967 465.927 78.834 466.273 78.246C466.627 77.6487 467.108 77.1867 467.715 76.86C468.331 76.524 469.017 76.356 469.773 76.356C470.51 76.356 471.177 76.5147 471.775 76.832C472.372 77.1493 472.839 77.6067 473.175 78.204C473.52 78.792 473.693 79.478 473.693 80.262ZM469.787 78.008C469.292 78.008 468.877 78.148 468.541 78.428C468.205 78.708 467.999 79.0907 467.925 79.576H471.635C471.56 79.1 471.355 78.722 471.019 78.442C470.683 78.1527 470.272 78.008 469.787 78.008ZM477.98 76.356C479.146 76.356 480.042 76.636 480.668 77.196C481.293 77.7467 481.606 78.582 481.606 79.702V84H479.562V83.062C479.151 83.762 478.386 84.112 477.266 84.112C476.687 84.112 476.183 84.014 475.754 83.818C475.334 83.622 475.012 83.3513 474.788 83.006C474.564 82.6607 474.452 82.2687 474.452 81.83C474.452 81.13 474.713 80.5793 475.236 80.178C475.768 79.7767 476.584 79.576 477.686 79.576H479.422C479.422 79.1 479.277 78.736 478.988 78.484C478.698 78.2227 478.264 78.092 477.686 78.092C477.284 78.092 476.888 78.1573 476.496 78.288C476.113 78.4093 475.786 78.5773 475.516 78.792L474.732 77.266C475.142 76.9767 475.632 76.7527 476.202 76.594C476.78 76.4353 477.373 76.356 477.98 76.356ZM477.812 82.642C478.185 82.642 478.516 82.558 478.806 82.39C479.095 82.2127 479.3 81.956 479.422 81.62V80.85H477.924C477.028 80.85 476.58 81.144 476.58 81.732C476.58 82.012 476.687 82.236 476.902 82.404C477.126 82.5627 477.429 82.642 477.812 82.642ZM491.336 73.612V84H489.25V83.132C488.709 83.7853 487.925 84.112 486.898 84.112C486.189 84.112 485.545 83.9533 484.966 83.636C484.397 83.3187 483.949 82.866 483.622 82.278C483.296 81.69 483.132 81.0087 483.132 80.234C483.132 79.4593 483.296 78.778 483.622 78.19C483.949 77.602 484.397 77.1493 484.966 76.832C485.545 76.5147 486.189 76.356 486.898 76.356C487.86 76.356 488.611 76.6593 489.152 77.266V73.612H491.336ZM487.276 82.32C487.827 82.32 488.284 82.1333 488.648 81.76C489.012 81.3773 489.194 80.8687 489.194 80.234C489.194 79.5993 489.012 79.0953 488.648 78.722C488.284 78.3393 487.827 78.148 487.276 78.148C486.716 78.148 486.254 78.3393 485.89 78.722C485.526 79.0953 485.344 79.5993 485.344 80.234C485.344 80.8687 485.526 81.3773 485.89 81.76C486.254 82.1333 486.716 82.32 487.276 82.32ZM493.358 73.612H495.542V84H493.358V73.612ZM497.569 76.468H499.753V84H497.569V76.468ZM498.661 75.418C498.259 75.418 497.933 75.3013 497.681 75.068C497.429 74.8347 497.303 74.5453 497.303 74.2C497.303 73.8547 497.429 73.5653 497.681 73.332C497.933 73.0987 498.259 72.982 498.661 72.982C499.062 72.982 499.389 73.094 499.641 73.318C499.893 73.542 500.019 73.822 500.019 74.158C500.019 74.522 499.893 74.8253 499.641 75.068C499.389 75.3013 499.062 75.418 498.661 75.418ZM506.357 76.356C507.291 76.356 508.042 76.636 508.611 77.196C509.19 77.756 509.479 78.5867 509.479 79.688V84H507.295V80.024C507.295 79.4267 507.165 78.9833 506.903 78.694C506.642 78.3953 506.264 78.246 505.769 78.246C505.219 78.246 504.78 78.4187 504.453 78.764C504.127 79.1 503.963 79.604 503.963 80.276V84H501.779V76.468H503.865V77.35C504.155 77.0327 504.514 76.79 504.943 76.622C505.373 76.4447 505.844 76.356 506.357 76.356ZM518.919 80.262C518.919 80.29 518.905 80.486 518.877 80.85H513.179C513.282 81.3167 513.525 81.6853 513.907 81.956C514.29 82.2267 514.766 82.362 515.335 82.362C515.727 82.362 516.073 82.306 516.371 82.194C516.679 82.0727 516.964 81.886 517.225 81.634L518.387 82.894C517.678 83.706 516.642 84.112 515.279 84.112C514.43 84.112 513.679 83.9487 513.025 83.622C512.372 83.286 511.868 82.824 511.513 82.236C511.159 81.648 510.981 80.9807 510.981 80.234C510.981 79.4967 511.154 78.834 511.499 78.246C511.854 77.6487 512.335 77.1867 512.941 76.86C513.557 76.524 514.243 76.356 514.999 76.356C515.737 76.356 516.404 76.5147 517.001 76.832C517.599 77.1493 518.065 77.6067 518.401 78.204C518.747 78.792 518.919 79.478 518.919 80.262ZM515.013 78.008C514.519 78.008 514.103 78.148 513.767 78.428C513.431 78.708 513.226 79.0907 513.151 79.576H516.861C516.787 79.1 516.581 78.722 516.245 78.442C515.909 78.1527 515.499 78.008 515.013 78.008ZM455.162 91.2H457.43V99.152H462.344V101H455.162V91.2ZM470.781 97.262C470.781 97.29 470.767 97.486 470.739 97.85H465.041C465.143 98.3167 465.386 98.6853 465.769 98.956C466.151 99.2267 466.627 99.362 467.197 99.362C467.589 99.362 467.934 99.306 468.233 99.194C468.541 99.0727 468.825 98.886 469.087 98.634L470.249 99.894C469.539 100.706 468.503 101.112 467.141 101.112C466.291 101.112 465.54 100.949 464.887 100.622C464.233 100.286 463.729 99.824 463.375 99.236C463.02 98.648 462.843 97.9807 462.843 97.234C462.843 96.4967 463.015 95.834 463.361 95.246C463.715 94.6487 464.196 94.1867 464.803 93.86C465.419 93.524 466.105 93.356 466.861 93.356C467.598 93.356 468.265 93.5147 468.863 93.832C469.46 94.1493 469.927 94.6067 470.263 95.204C470.608 95.792 470.781 96.478 470.781 97.262ZM466.875 95.008C466.38 95.008 465.965 95.148 465.629 95.428C465.293 95.708 465.087 96.0907 465.013 96.576H468.723C468.648 96.1 468.443 95.722 468.107 95.442C467.771 95.1527 467.36 95.008 466.875 95.008ZM475.067 93.356C476.234 93.356 477.13 93.636 477.755 94.196C478.381 94.7467 478.693 95.582 478.693 96.702V101H476.649V100.062C476.239 100.762 475.473 101.112 474.353 101.112C473.775 101.112 473.271 101.014 472.841 100.818C472.421 100.622 472.099 100.351 471.875 100.006C471.651 99.6607 471.539 99.2687 471.539 98.83C471.539 98.13 471.801 97.5793 472.323 97.178C472.855 96.7767 473.672 96.576 474.773 96.576H476.509C476.509 96.1 476.365 95.736 476.075 95.484C475.786 95.2227 475.352 95.092 474.773 95.092C474.372 95.092 473.975 95.1573 473.583 95.288C473.201 95.4093 472.874 95.5773 472.603 95.792L471.819 94.266C472.23 93.9767 472.72 93.7527 473.289 93.594C473.868 93.4353 474.461 93.356 475.067 93.356ZM474.899 99.642C475.273 99.642 475.604 99.558 475.893 99.39C476.183 99.2127 476.388 98.956 476.509 98.62V97.85H475.011C474.115 97.85 473.667 98.144 473.667 98.732C473.667 99.012 473.775 99.236 473.989 99.404C474.213 99.5627 474.517 99.642 474.899 99.642ZM488.424 90.612V101H486.338V100.132C485.797 100.785 485.013 101.112 483.986 101.112C483.277 101.112 482.633 100.953 482.054 100.636C481.485 100.319 481.037 99.866 480.71 99.278C480.383 98.69 480.22 98.0087 480.22 97.234C480.22 96.4593 480.383 95.778 480.71 95.19C481.037 94.602 481.485 94.1493 482.054 93.832C482.633 93.5147 483.277 93.356 483.986 93.356C484.947 93.356 485.699 93.6593 486.24 94.266V90.612H488.424ZM484.364 99.32C484.915 99.32 485.372 99.1333 485.736 98.76C486.1 98.3773 486.282 97.8687 486.282 97.234C486.282 96.5993 486.1 96.0953 485.736 95.722C485.372 95.3393 484.915 95.148 484.364 95.148C483.804 95.148 483.342 95.3393 482.978 95.722C482.614 96.0953 482.432 96.5993 482.432 97.234C482.432 97.8687 482.614 98.3773 482.978 98.76C483.342 99.1333 483.804 99.32 484.364 99.32ZM490.6 91.2H492.868V101H490.6V91.2ZM499.617 93.356C500.551 93.356 501.302 93.636 501.871 94.196C502.45 94.756 502.739 95.5867 502.739 96.688V101H500.555V97.024C500.555 96.4267 500.425 95.9833 500.163 95.694C499.902 95.3953 499.524 95.246 499.029 95.246C498.479 95.246 498.04 95.4187 497.713 95.764C497.387 96.1 497.223 96.604 497.223 97.276V101H495.039V93.468H497.125V94.35C497.415 94.0327 497.774 93.79 498.203 93.622C498.633 93.4447 499.104 93.356 499.617 93.356Z" fill="black"/>
<path d="M441 62V74C441 76.7614 443.239 79 446 79H453" stroke="black"/>
<path d="M441 69V91C441 93.7614 443.239 96 446 96H453" stroke="black"/>
</svg>
