<svg width="714" height="245" viewBox="0 0 714 245" fill="none" xmlns="http://www.w3.org/2000/svg">
<path d="M310.572 14.02V16.61H315.108V18.43H310.572V22H308.304V12.2H315.71V14.02H310.572ZM320.484 22.112C319.69 22.112 318.976 21.9487 318.342 21.622C317.716 21.286 317.226 20.824 316.872 20.236C316.517 19.648 316.34 18.9807 316.34 18.234C316.34 17.4873 316.517 16.82 316.872 16.232C317.226 15.644 317.716 15.1867 318.342 14.86C318.976 14.524 319.69 14.356 320.484 14.356C321.277 14.356 321.986 14.524 322.612 14.86C323.237 15.1867 323.727 15.644 324.082 16.232C324.436 16.82 324.614 17.4873 324.614 18.234C324.614 18.9807 324.436 19.648 324.082 20.236C323.727 20.824 323.237 21.286 322.612 21.622C321.986 21.9487 321.277 22.112 320.484 22.112ZM320.484 20.32C321.044 20.32 321.501 20.1333 321.856 19.76C322.22 19.3773 322.402 18.8687 322.402 18.234C322.402 17.5993 322.22 17.0953 321.856 16.722C321.501 16.3393 321.044 16.148 320.484 16.148C319.924 16.148 319.462 16.3393 319.098 16.722C318.734 17.0953 318.552 17.5993 318.552 18.234C318.552 18.8687 318.734 19.3773 319.098 19.76C319.462 20.1333 319.924 20.32 320.484 20.32ZM329.713 22.112C328.911 22.112 328.187 21.9487 327.543 21.622C326.909 21.286 326.409 20.824 326.045 20.236C325.691 19.648 325.513 18.9807 325.513 18.234C325.513 17.4873 325.691 16.82 326.045 16.232C326.409 15.644 326.909 15.1867 327.543 14.86C328.187 14.524 328.911 14.356 329.713 14.356C330.507 14.356 331.197 14.524 331.785 14.86C332.383 15.1867 332.817 15.658 333.087 16.274L331.393 17.184C331.001 16.4933 330.437 16.148 329.699 16.148C329.13 16.148 328.659 16.3347 328.285 16.708C327.912 17.0813 327.725 17.59 327.725 18.234C327.725 18.878 327.912 19.3867 328.285 19.76C328.659 20.1333 329.13 20.32 329.699 20.32C330.446 20.32 331.011 19.9747 331.393 19.284L333.087 20.208C332.817 20.8053 332.383 21.272 331.785 21.608C331.197 21.944 330.507 22.112 329.713 22.112ZM341.933 14.468V22H339.861V21.104C339.572 21.4307 339.226 21.6827 338.825 21.86C338.424 22.028 337.99 22.112 337.523 22.112C336.534 22.112 335.75 21.8273 335.171 21.258C334.592 20.6887 334.303 19.844 334.303 18.724V14.468H336.487V18.402C336.487 19.6153 336.996 20.222 338.013 20.222C338.536 20.222 338.956 20.054 339.273 19.718C339.59 19.3727 339.749 18.864 339.749 18.192V14.468H341.933ZM346.49 22.112C345.865 22.112 345.254 22.0373 344.656 21.888C344.059 21.7293 343.583 21.5333 343.228 21.3L343.956 19.732C344.292 19.9467 344.698 20.124 345.174 20.264C345.65 20.3947 346.117 20.46 346.574 20.46C347.498 20.46 347.96 20.2313 347.96 19.774C347.96 19.5593 347.834 19.4053 347.582 19.312C347.33 19.2187 346.943 19.1393 346.42 19.074C345.804 18.9807 345.296 18.8733 344.894 18.752C344.493 18.6307 344.143 18.416 343.844 18.108C343.555 17.8 343.41 17.3613 343.41 16.792C343.41 16.316 343.546 15.896 343.816 15.532C344.096 15.1587 344.498 14.8693 345.02 14.664C345.552 14.4587 346.178 14.356 346.896 14.356C347.428 14.356 347.956 14.4167 348.478 14.538C349.01 14.65 349.449 14.8087 349.794 15.014L349.066 16.568C348.404 16.1947 347.68 16.008 346.896 16.008C346.43 16.008 346.08 16.0733 345.846 16.204C345.613 16.3347 345.496 16.5027 345.496 16.708C345.496 16.9413 345.622 17.1047 345.874 17.198C346.126 17.2913 346.528 17.38 347.078 17.464C347.694 17.5667 348.198 17.6787 348.59 17.8C348.982 17.912 349.323 18.122 349.612 18.43C349.902 18.738 350.046 19.1673 350.046 19.718C350.046 20.1847 349.906 20.6 349.626 20.964C349.346 21.328 348.936 21.6127 348.394 21.818C347.862 22.014 347.228 22.112 346.49 22.112ZM360.259 22.168C359.241 22.168 358.322 21.9487 357.501 21.51C356.689 21.0713 356.049 20.4693 355.583 19.704C355.125 18.9293 354.897 18.0613 354.897 17.1C354.897 16.1387 355.125 15.2753 355.583 14.51C356.049 13.7353 356.689 13.1287 357.501 12.69C358.322 12.2513 359.241 12.032 360.259 12.032C361.276 12.032 362.191 12.2513 363.003 12.69C363.815 13.1287 364.454 13.7353 364.921 14.51C365.387 15.2753 365.621 16.1387 365.621 17.1C365.621 18.0613 365.387 18.9293 364.921 19.704C364.454 20.4693 363.815 21.0713 363.003 21.51C362.191 21.9487 361.276 22.168 360.259 22.168ZM360.259 20.236C360.837 20.236 361.36 20.1053 361.827 19.844C362.293 19.5733 362.657 19.2 362.919 18.724C363.189 18.248 363.325 17.7067 363.325 17.1C363.325 16.4933 363.189 15.952 362.919 15.476C362.657 15 362.293 14.6313 361.827 14.37C361.36 14.0993 360.837 13.964 360.259 13.964C359.68 13.964 359.157 14.0993 358.691 14.37C358.224 14.6313 357.855 15 357.585 15.476C357.323 15.952 357.193 16.4933 357.193 17.1C357.193 17.7067 357.323 18.248 357.585 18.724C357.855 19.2 358.224 19.5733 358.691 19.844C359.157 20.1053 359.68 20.236 360.259 20.236ZM371.749 14.356C372.682 14.356 373.434 14.636 374.003 15.196C374.582 15.756 374.871 16.5867 374.871 17.688V22H372.687V18.024C372.687 17.4267 372.556 16.9833 372.295 16.694C372.034 16.3953 371.656 16.246 371.161 16.246C370.61 16.246 370.172 16.4187 369.845 16.764C369.518 17.1 369.355 17.604 369.355 18.276V22H367.171V14.468H369.257V15.35C369.546 15.0327 369.906 14.79 370.335 14.622C370.764 14.4447 371.236 14.356 371.749 14.356ZM376.851 11.612H379.035V22H376.851V11.612ZM381.062 14.468H383.246V22H381.062V14.468ZM382.154 13.418C381.752 13.418 381.426 13.3013 381.174 13.068C380.922 12.8347 380.796 12.5453 380.796 12.2C380.796 11.8547 380.922 11.5653 381.174 11.332C381.426 11.0987 381.752 10.982 382.154 10.982C382.555 10.982 382.882 11.094 383.134 11.318C383.386 11.542 383.512 11.822 383.512 12.158C383.512 12.522 383.386 12.8253 383.134 13.068C382.882 13.3013 382.555 13.418 382.154 13.418ZM389.851 14.356C390.784 14.356 391.535 14.636 392.105 15.196C392.683 15.756 392.973 16.5867 392.973 17.688V22H390.789V18.024C390.789 17.4267 390.658 16.9833 390.397 16.694C390.135 16.3953 389.757 16.246 389.263 16.246C388.712 16.246 388.273 16.4187 387.947 16.764C387.62 17.1 387.457 17.604 387.457 18.276V22H385.273V14.468H387.359V15.35C387.648 15.0327 388.007 14.79 388.437 14.622C388.866 14.4447 389.337 14.356 389.851 14.356ZM402.412 18.262C402.412 18.29 402.398 18.486 402.37 18.85H396.672C396.775 19.3167 397.018 19.6853 397.4 19.956C397.783 20.2267 398.259 20.362 398.828 20.362C399.22 20.362 399.566 20.306 399.864 20.194C400.172 20.0727 400.457 19.886 400.718 19.634L401.88 20.894C401.171 21.706 400.135 22.112 398.772 22.112C397.923 22.112 397.172 21.9487 396.518 21.622C395.865 21.286 395.361 20.824 395.006 20.236C394.652 19.648 394.474 18.9807 394.474 18.234C394.474 17.4967 394.647 16.834 394.992 16.246C395.347 15.6487 395.828 15.1867 396.434 14.86C397.05 14.524 397.736 14.356 398.492 14.356C399.23 14.356 399.897 14.5147 400.494 14.832C401.092 15.1493 401.558 15.6067 401.894 16.204C402.24 16.792 402.412 17.478 402.412 18.262ZM398.506 16.008C398.012 16.008 397.596 16.148 397.26 16.428C396.924 16.708 396.719 17.0907 396.644 17.576H400.354C400.28 17.1 400.074 16.722 399.738 16.442C399.402 16.1527 398.992 16.008 398.506 16.008Z" fill="black"/>
<g filter="url(#filter0_dddddd)">
<rect x="272" y="32" width="170" height="117" rx="18" fill="url(#paint0_linear)"/>
</g>
<path d="M300.68 54.612V65H298.594V64.132C298.053 64.7853 297.269 65.112 296.242 65.112C295.533 65.112 294.889 64.9533 294.31 64.636C293.741 64.3187 293.293 63.866 292.966 63.278C292.639 62.69 292.476 62.0087 292.476 61.234C292.476 60.4593 292.639 59.778 292.966 59.19C293.293 58.602 293.741 58.1493 294.31 57.832C294.889 57.5147 295.533 57.356 296.242 57.356C297.203 57.356 297.955 57.6593 298.496 58.266V54.612H300.68ZM296.62 63.32C297.171 63.32 297.628 63.1333 297.992 62.76C298.356 62.3773 298.538 61.8687 298.538 61.234C298.538 60.5993 298.356 60.0953 297.992 59.722C297.628 59.3393 297.171 59.148 296.62 59.148C296.06 59.148 295.598 59.3393 295.234 59.722C294.87 60.0953 294.688 60.5993 294.688 61.234C294.688 61.8687 294.87 62.3773 295.234 62.76C295.598 63.1333 296.06 63.32 296.62 63.32ZM305.739 57.356C306.906 57.356 307.802 57.636 308.427 58.196C309.053 58.7467 309.365 59.582 309.365 60.702V65H307.321V64.062C306.911 64.762 306.145 65.112 305.025 65.112C304.447 65.112 303.943 65.014 303.513 64.818C303.093 64.622 302.771 64.3513 302.547 64.006C302.323 63.6607 302.211 63.2687 302.211 62.83C302.211 62.13 302.473 61.5793 302.995 61.178C303.527 60.7767 304.344 60.576 305.445 60.576H307.181C307.181 60.1 307.037 59.736 306.747 59.484C306.458 59.2227 306.024 59.092 305.445 59.092C305.044 59.092 304.647 59.1573 304.255 59.288C303.873 59.4093 303.546 59.5773 303.275 59.792L302.491 58.266C302.902 57.9767 303.392 57.7527 303.961 57.594C304.54 57.4353 305.133 57.356 305.739 57.356ZM305.571 63.642C305.945 63.642 306.276 63.558 306.565 63.39C306.855 63.2127 307.06 62.956 307.181 62.62V61.85H305.683C304.787 61.85 304.339 62.144 304.339 62.732C304.339 63.012 304.447 63.236 304.661 63.404C304.885 63.5627 305.189 63.642 305.571 63.642ZM316.2 64.636C315.985 64.7947 315.719 64.916 315.402 65C315.094 65.0747 314.767 65.112 314.422 65.112C313.526 65.112 312.831 64.8833 312.336 64.426C311.851 63.9687 311.608 63.2967 311.608 62.41V59.316H310.446V57.636H311.608V55.802H313.792V57.636H315.668V59.316H313.792V62.382C313.792 62.6993 313.871 62.9467 314.03 63.124C314.198 63.292 314.431 63.376 314.73 63.376C315.075 63.376 315.369 63.2827 315.612 63.096L316.2 64.636ZM325.014 57.468V65H322.942V64.104C322.653 64.4307 322.307 64.6827 321.906 64.86C321.505 65.028 321.071 65.112 320.604 65.112C319.615 65.112 318.831 64.8273 318.252 64.258C317.673 63.6887 317.384 62.844 317.384 61.724V57.468H319.568V61.402C319.568 62.6153 320.077 63.222 321.094 63.222C321.617 63.222 322.037 63.054 322.354 62.718C322.671 62.3727 322.83 61.864 322.83 61.192V57.468H325.014ZM336.683 57.356C337.626 57.356 338.373 57.636 338.923 58.196C339.483 58.7467 339.763 59.5773 339.763 60.688V65H337.579V61.024C337.579 60.4267 337.453 59.9833 337.201 59.694C336.959 59.3953 336.609 59.246 336.151 59.246C335.638 59.246 335.232 59.414 334.933 59.75C334.635 60.0767 334.485 60.5667 334.485 61.22V65H332.301V61.024C332.301 59.8387 331.825 59.246 330.873 59.246C330.369 59.246 329.968 59.414 329.669 59.75C329.371 60.0767 329.221 60.5667 329.221 61.22V65H327.037V57.468H329.123V58.336C329.403 58.0187 329.744 57.776 330.145 57.608C330.556 57.44 331.004 57.356 331.489 57.356C332.021 57.356 332.502 57.4633 332.931 57.678C333.361 57.8833 333.706 58.1867 333.967 58.588C334.275 58.196 334.663 57.8927 335.129 57.678C335.605 57.4633 336.123 57.356 336.683 57.356ZM342.547 65.112C342.164 65.112 341.842 64.9813 341.581 64.72C341.32 64.4587 341.189 64.132 341.189 63.74C341.189 63.3387 341.32 63.0167 341.581 62.774C341.842 62.522 342.164 62.396 342.547 62.396C342.93 62.396 343.252 62.522 343.513 62.774C343.774 63.0167 343.905 63.3387 343.905 63.74C343.905 64.132 343.774 64.4587 343.513 64.72C343.252 64.9813 342.93 65.112 342.547 65.112ZM350.188 64.636C349.974 64.7947 349.708 64.916 349.39 65C349.082 65.0747 348.756 65.112 348.41 65.112C347.514 65.112 346.819 64.8833 346.324 64.426C345.839 63.9687 345.596 63.2967 345.596 62.41V59.316H344.434V57.636H345.596V55.802H347.78V57.636H349.656V59.316H347.78V62.382C347.78 62.6993 347.86 62.9467 348.018 63.124C348.186 63.292 348.42 63.376 348.718 63.376C349.064 63.376 349.358 63.2827 349.6 63.096L350.188 64.636ZM356.202 65L354.55 62.69L352.842 65H350.462L353.36 61.206L350.56 57.468H353.01L354.606 59.666L356.244 57.468H358.568L355.768 61.15L358.68 65H356.202ZM364.598 64.636C364.384 64.7947 364.118 64.916 363.8 65C363.492 65.0747 363.166 65.112 362.82 65.112C361.924 65.112 361.229 64.8833 360.734 64.426C360.249 63.9687 360.006 63.2967 360.006 62.41V59.316H358.844V57.636H360.006V55.802H362.19V57.636H364.066V59.316H362.19V62.382C362.19 62.6993 362.27 62.9467 362.428 63.124C362.596 63.292 362.83 63.376 363.128 63.376C363.474 63.376 363.768 63.2827 364.01 63.096L364.598 64.636Z" fill="white"/>
<path d="M320.15 82.2V92H317.882V87.982H313.43V92H311.162V82.2H313.43V86.064H317.882V82.2H320.15ZM329.693 88.262C329.693 88.29 329.679 88.486 329.651 88.85H323.953C324.055 89.3167 324.298 89.6853 324.681 89.956C325.063 90.2267 325.539 90.362 326.109 90.362C326.501 90.362 326.846 90.306 327.145 90.194C327.453 90.0727 327.737 89.886 327.999 89.634L329.161 90.894C328.451 91.706 327.415 92.112 326.053 92.112C325.203 92.112 324.452 91.9487 323.799 91.622C323.145 91.286 322.641 90.824 322.287 90.236C321.932 89.648 321.755 88.9807 321.755 88.234C321.755 87.4967 321.927 86.834 322.273 86.246C322.627 85.6487 323.108 85.1867 323.715 84.86C324.331 84.524 325.017 84.356 325.773 84.356C326.51 84.356 327.177 84.5147 327.775 84.832C328.372 85.1493 328.839 85.6067 329.175 86.204C329.52 86.792 329.693 87.478 329.693 88.262ZM325.787 86.008C325.292 86.008 324.877 86.148 324.541 86.428C324.205 86.708 323.999 87.0907 323.925 87.576H327.635C327.56 87.1 327.355 86.722 327.019 86.442C326.683 86.1527 326.272 86.008 325.787 86.008ZM333.98 84.356C335.146 84.356 336.042 84.636 336.668 85.196C337.293 85.7467 337.606 86.582 337.606 87.702V92H335.562V91.062C335.151 91.762 334.386 92.112 333.266 92.112C332.687 92.112 332.183 92.014 331.754 91.818C331.334 91.622 331.012 91.3513 330.788 91.006C330.564 90.6607 330.452 90.2687 330.452 89.83C330.452 89.13 330.713 88.5793 331.236 88.178C331.768 87.7767 332.584 87.576 333.686 87.576H335.422C335.422 87.1 335.277 86.736 334.988 86.484C334.698 86.2227 334.264 86.092 333.686 86.092C333.284 86.092 332.888 86.1573 332.496 86.288C332.113 86.4093 331.786 86.5773 331.516 86.792L330.732 85.266C331.142 84.9767 331.632 84.7527 332.202 84.594C332.78 84.4353 333.373 84.356 333.98 84.356ZM333.812 90.642C334.185 90.642 334.516 90.558 334.806 90.39C335.095 90.2127 335.3 89.956 335.422 89.62V88.85H333.924C333.028 88.85 332.58 89.144 332.58 89.732C332.58 90.012 332.687 90.236 332.902 90.404C333.126 90.5627 333.429 90.642 333.812 90.642ZM347.336 81.612V92H345.25V91.132C344.709 91.7853 343.925 92.112 342.898 92.112C342.189 92.112 341.545 91.9533 340.966 91.636C340.397 91.3187 339.949 90.866 339.622 90.278C339.296 89.69 339.132 89.0087 339.132 88.234C339.132 87.4593 339.296 86.778 339.622 86.19C339.949 85.602 340.397 85.1493 340.966 84.832C341.545 84.5147 342.189 84.356 342.898 84.356C343.86 84.356 344.611 84.6593 345.152 85.266V81.612H347.336ZM343.276 90.32C343.827 90.32 344.284 90.1333 344.648 89.76C345.012 89.3773 345.194 88.8687 345.194 88.234C345.194 87.5993 345.012 87.0953 344.648 86.722C344.284 86.3393 343.827 86.148 343.276 86.148C342.716 86.148 342.254 86.3393 341.89 86.722C341.526 87.0953 341.344 87.5993 341.344 88.234C341.344 88.8687 341.526 89.3773 341.89 89.76C342.254 90.1333 342.716 90.32 343.276 90.32ZM349.358 81.612H351.542V92H349.358V81.612ZM353.569 84.468H355.753V92H353.569V84.468ZM354.661 83.418C354.259 83.418 353.933 83.3013 353.681 83.068C353.429 82.8347 353.303 82.5453 353.303 82.2C353.303 81.8547 353.429 81.5653 353.681 81.332C353.933 81.0987 354.259 80.982 354.661 80.982C355.062 80.982 355.389 81.094 355.641 81.318C355.893 81.542 356.019 81.822 356.019 82.158C356.019 82.522 355.893 82.8253 355.641 83.068C355.389 83.3013 355.062 83.418 354.661 83.418ZM362.357 84.356C363.291 84.356 364.042 84.636 364.611 85.196C365.19 85.756 365.479 86.5867 365.479 87.688V92H363.295V88.024C363.295 87.4267 363.165 86.9833 362.903 86.694C362.642 86.3953 362.264 86.246 361.769 86.246C361.219 86.246 360.78 86.4187 360.453 86.764C360.127 87.1 359.963 87.604 359.963 88.276V92H357.779V84.468H359.865V85.35C360.155 85.0327 360.514 84.79 360.943 84.622C361.373 84.4447 361.844 84.356 362.357 84.356ZM374.919 88.262C374.919 88.29 374.905 88.486 374.877 88.85H369.179C369.282 89.3167 369.525 89.6853 369.907 89.956C370.29 90.2267 370.766 90.362 371.335 90.362C371.727 90.362 372.073 90.306 372.371 90.194C372.679 90.0727 372.964 89.886 373.225 89.634L374.387 90.894C373.678 91.706 372.642 92.112 371.279 92.112C370.43 92.112 369.679 91.9487 369.025 91.622C368.372 91.286 367.868 90.824 367.513 90.236C367.159 89.648 366.981 88.9807 366.981 88.234C366.981 87.4967 367.154 86.834 367.499 86.246C367.854 85.6487 368.335 85.1867 368.941 84.86C369.557 84.524 370.243 84.356 370.999 84.356C371.737 84.356 372.404 84.5147 373.001 84.832C373.599 85.1493 374.065 85.6067 374.401 86.204C374.747 86.792 374.919 87.478 374.919 88.262ZM371.013 86.008C370.519 86.008 370.103 86.148 369.767 86.428C369.431 86.708 369.226 87.0907 369.151 87.576H372.861C372.787 87.1 372.581 86.722 372.245 86.442C371.909 86.1527 371.499 86.008 371.013 86.008ZM311.162 99.2H313.43V107.152H318.344V109H311.162V99.2ZM326.781 105.262C326.781 105.29 326.767 105.486 326.739 105.85H321.041C321.143 106.317 321.386 106.685 321.769 106.956C322.151 107.227 322.627 107.362 323.197 107.362C323.589 107.362 323.934 107.306 324.233 107.194C324.541 107.073 324.825 106.886 325.087 106.634L326.249 107.894C325.539 108.706 324.503 109.112 323.141 109.112C322.291 109.112 321.54 108.949 320.887 108.622C320.233 108.286 319.729 107.824 319.375 107.236C319.02 106.648 318.843 105.981 318.843 105.234C318.843 104.497 319.015 103.834 319.361 103.246C319.715 102.649 320.196 102.187 320.803 101.86C321.419 101.524 322.105 101.356 322.861 101.356C323.598 101.356 324.265 101.515 324.863 101.832C325.46 102.149 325.927 102.607 326.263 103.204C326.608 103.792 326.781 104.478 326.781 105.262ZM322.875 103.008C322.38 103.008 321.965 103.148 321.629 103.428C321.293 103.708 321.087 104.091 321.013 104.576H324.723C324.648 104.1 324.443 103.722 324.107 103.442C323.771 103.153 323.36 103.008 322.875 103.008ZM331.067 101.356C332.234 101.356 333.13 101.636 333.755 102.196C334.381 102.747 334.693 103.582 334.693 104.702V109H332.649V108.062C332.239 108.762 331.473 109.112 330.353 109.112C329.775 109.112 329.271 109.014 328.841 108.818C328.421 108.622 328.099 108.351 327.875 108.006C327.651 107.661 327.539 107.269 327.539 106.83C327.539 106.13 327.801 105.579 328.323 105.178C328.855 104.777 329.672 104.576 330.773 104.576H332.509C332.509 104.1 332.365 103.736 332.075 103.484C331.786 103.223 331.352 103.092 330.773 103.092C330.372 103.092 329.975 103.157 329.583 103.288C329.201 103.409 328.874 103.577 328.603 103.792L327.819 102.266C328.23 101.977 328.72 101.753 329.289 101.594C329.868 101.435 330.461 101.356 331.067 101.356ZM330.899 107.642C331.273 107.642 331.604 107.558 331.893 107.39C332.183 107.213 332.388 106.956 332.509 106.62V105.85H331.011C330.115 105.85 329.667 106.144 329.667 106.732C329.667 107.012 329.775 107.236 329.989 107.404C330.213 107.563 330.517 107.642 330.899 107.642ZM344.424 98.612V109H342.338V108.132C341.797 108.785 341.013 109.112 339.986 109.112C339.277 109.112 338.633 108.953 338.054 108.636C337.485 108.319 337.037 107.866 336.71 107.278C336.383 106.69 336.22 106.009 336.22 105.234C336.22 104.459 336.383 103.778 336.71 103.19C337.037 102.602 337.485 102.149 338.054 101.832C338.633 101.515 339.277 101.356 339.986 101.356C340.947 101.356 341.699 101.659 342.24 102.266V98.612H344.424ZM340.364 107.32C340.915 107.32 341.372 107.133 341.736 106.76C342.1 106.377 342.282 105.869 342.282 105.234C342.282 104.599 342.1 104.095 341.736 103.722C341.372 103.339 340.915 103.148 340.364 103.148C339.804 103.148 339.342 103.339 338.978 103.722C338.614 104.095 338.432 104.599 338.432 105.234C338.432 105.869 338.614 106.377 338.978 106.76C339.342 107.133 339.804 107.32 340.364 107.32ZM346.6 99.2H348.868V109H346.6V99.2ZM355.617 101.356C356.551 101.356 357.302 101.636 357.871 102.196C358.45 102.756 358.739 103.587 358.739 104.688V109H356.555V105.024C356.555 104.427 356.425 103.983 356.163 103.694C355.902 103.395 355.524 103.246 355.029 103.246C354.479 103.246 354.04 103.419 353.713 103.764C353.387 104.1 353.223 104.604 353.223 105.276V109H351.039V101.468H353.125V102.35C353.415 102.033 353.774 101.79 354.203 101.622C354.633 101.445 355.104 101.356 355.617 101.356ZM317.616 123.9H313.066L312.198 126H309.874L314.242 116.2H316.482L320.864 126H318.484L317.616 123.9ZM316.902 122.178L315.348 118.426L313.794 122.178H316.902ZM323.813 119.462C324.074 119.098 324.424 118.823 324.863 118.636C325.311 118.449 325.824 118.356 326.403 118.356V120.372C326.16 120.353 325.997 120.344 325.913 120.344C325.287 120.344 324.797 120.521 324.443 120.876C324.088 121.221 323.911 121.744 323.911 122.444V126H321.727V118.468H323.813V119.462ZM332.819 125.636C332.604 125.795 332.338 125.916 332.021 126C331.713 126.075 331.386 126.112 331.041 126.112C330.145 126.112 329.45 125.883 328.955 125.426C328.47 124.969 328.227 124.297 328.227 123.41V120.316H327.065V118.636H328.227V116.802H330.411V118.636H332.287V120.316H330.411V123.382C330.411 123.699 330.49 123.947 330.649 124.124C330.817 124.292 331.05 124.376 331.349 124.376C331.694 124.376 331.988 124.283 332.231 124.096L332.819 125.636ZM334.045 118.468H336.229V126H334.045V118.468ZM335.137 117.418C334.736 117.418 334.409 117.301 334.157 117.068C333.905 116.835 333.779 116.545 333.779 116.2C333.779 115.855 333.905 115.565 334.157 115.332C334.409 115.099 334.736 114.982 335.137 114.982C335.538 114.982 335.865 115.094 336.117 115.318C336.369 115.542 336.495 115.822 336.495 116.158C336.495 116.522 336.369 116.825 336.117 117.068C335.865 117.301 335.538 117.418 335.137 117.418ZM341.49 123.046L340.44 124.082V126H338.256V115.612H340.44V121.492L343.632 118.468H346.236L343.1 121.66L346.516 126H343.87L341.49 123.046ZM354.548 122.262C354.548 122.29 354.534 122.486 354.506 122.85H348.808C348.911 123.317 349.153 123.685 349.536 123.956C349.919 124.227 350.395 124.362 350.964 124.362C351.356 124.362 351.701 124.306 352 124.194C352.308 124.073 352.593 123.886 352.854 123.634L354.016 124.894C353.307 125.706 352.271 126.112 350.908 126.112C350.059 126.112 349.307 125.949 348.654 125.622C348.001 125.286 347.497 124.824 347.142 124.236C346.787 123.648 346.61 122.981 346.61 122.234C346.61 121.497 346.783 120.834 347.128 120.246C347.483 119.649 347.963 119.187 348.57 118.86C349.186 118.524 349.872 118.356 350.628 118.356C351.365 118.356 352.033 118.515 352.63 118.832C353.227 119.149 353.694 119.607 354.03 120.204C354.375 120.792 354.548 121.478 354.548 122.262ZM350.642 120.008C350.147 120.008 349.732 120.148 349.396 120.428C349.06 120.708 348.855 121.091 348.78 121.576H352.49C352.415 121.1 352.21 120.722 351.874 120.442C351.538 120.153 351.127 120.008 350.642 120.008ZM356.002 115.612H358.186V126H356.002V115.612ZM360.213 118.468H362.397V126H360.213V118.468ZM361.305 117.418C360.904 117.418 360.577 117.301 360.325 117.068C360.073 116.835 359.947 116.545 359.947 116.2C359.947 115.855 360.073 115.565 360.325 115.332C360.577 115.099 360.904 114.982 361.305 114.982C361.706 114.982 362.033 115.094 362.285 115.318C362.537 115.542 362.663 115.822 362.663 116.158C362.663 116.522 362.537 116.825 362.285 117.068C362.033 117.301 361.706 117.418 361.305 117.418ZM369.002 118.356C369.935 118.356 370.687 118.636 371.256 119.196C371.835 119.756 372.124 120.587 372.124 121.688V126H369.94V122.024C369.94 121.427 369.809 120.983 369.548 120.694C369.287 120.395 368.909 120.246 368.414 120.246C367.863 120.246 367.425 120.419 367.098 120.764C366.771 121.1 366.608 121.604 366.608 122.276V126H364.424V118.468H366.51V119.35C366.799 119.033 367.159 118.79 367.588 118.622C368.017 118.445 368.489 118.356 369.002 118.356ZM378.682 118.356C379.615 118.356 380.366 118.636 380.936 119.196C381.514 119.756 381.804 120.587 381.804 121.688V126H379.62V122.024C379.62 121.427 379.489 120.983 379.228 120.694C378.966 120.395 378.588 120.246 378.094 120.246C377.543 120.246 377.104 120.419 376.778 120.764C376.451 121.1 376.288 121.604 376.288 122.276V126H374.104V115.612H376.288V119.252C376.577 118.963 376.927 118.743 377.338 118.594C377.748 118.435 378.196 118.356 378.682 118.356ZM386.821 118.356C387.988 118.356 388.884 118.636 389.509 119.196C390.135 119.747 390.447 120.582 390.447 121.702V126H388.403V125.062C387.993 125.762 387.227 126.112 386.107 126.112C385.529 126.112 385.025 126.014 384.595 125.818C384.175 125.622 383.853 125.351 383.629 125.006C383.405 124.661 383.293 124.269 383.293 123.83C383.293 123.13 383.555 122.579 384.077 122.178C384.609 121.777 385.426 121.576 386.527 121.576H388.263C388.263 121.1 388.119 120.736 387.829 120.484C387.54 120.223 387.106 120.092 386.527 120.092C386.126 120.092 385.729 120.157 385.337 120.288C384.955 120.409 384.628 120.577 384.357 120.792L383.573 119.266C383.984 118.977 384.474 118.753 385.043 118.594C385.622 118.435 386.215 118.356 386.821 118.356ZM386.653 124.642C387.027 124.642 387.358 124.558 387.647 124.39C387.937 124.213 388.142 123.956 388.263 123.62V122.85H386.765C385.869 122.85 385.421 123.144 385.421 123.732C385.421 124.012 385.529 124.236 385.743 124.404C385.967 124.563 386.271 124.642 386.653 124.642ZM392.424 115.612H394.608V126H392.424V115.612ZM402.04 125.636C401.825 125.795 401.559 125.916 401.242 126C400.934 126.075 400.607 126.112 400.262 126.112C399.366 126.112 398.67 125.883 398.176 125.426C397.69 124.969 397.448 124.297 397.448 123.41V120.316H396.286V118.636H397.448V116.802H399.632V118.636H401.508V120.316H399.632V123.382C399.632 123.699 399.711 123.947 399.87 124.124C400.038 124.292 400.271 124.376 400.57 124.376C400.915 124.376 401.209 124.283 401.452 124.096L402.04 125.636Z" fill="white"/>
<path d="M123.382 22.168C122.607 22.168 121.856 22.0653 121.128 21.86C120.409 21.6453 119.831 21.37 119.392 21.034L120.162 19.326C120.582 19.634 121.081 19.8813 121.66 20.068C122.239 20.2547 122.817 20.348 123.396 20.348C124.04 20.348 124.516 20.2547 124.824 20.068C125.132 19.872 125.286 19.6153 125.286 19.298C125.286 19.0647 125.193 18.8733 125.006 18.724C124.829 18.5653 124.595 18.4393 124.306 18.346C124.026 18.2527 123.643 18.15 123.158 18.038C122.411 17.8607 121.8 17.6833 121.324 17.506C120.848 17.3287 120.437 17.044 120.092 16.652C119.756 16.26 119.588 15.7373 119.588 15.084C119.588 14.5147 119.742 14.0013 120.05 13.544C120.358 13.0773 120.82 12.7087 121.436 12.438C122.061 12.1673 122.822 12.032 123.718 12.032C124.343 12.032 124.955 12.1067 125.552 12.256C126.149 12.4053 126.672 12.62 127.12 12.9L126.42 14.622C125.515 14.1087 124.609 13.852 123.704 13.852C123.069 13.852 122.598 13.9547 122.29 14.16C121.991 14.3653 121.842 14.636 121.842 14.972C121.842 15.308 122.015 15.56 122.36 15.728C122.715 15.8867 123.251 16.0453 123.97 16.204C124.717 16.3813 125.328 16.5587 125.804 16.736C126.28 16.9133 126.686 17.1933 127.022 17.576C127.367 17.9587 127.54 18.4767 127.54 19.13C127.54 19.69 127.381 20.2033 127.064 20.67C126.756 21.1273 126.289 21.4913 125.664 21.762C125.039 22.0327 124.278 22.168 123.382 22.168ZM133.388 14.356C134.088 14.356 134.722 14.5193 135.292 14.846C135.87 15.1633 136.323 15.616 136.65 16.204C136.976 16.7827 137.14 17.4593 137.14 18.234C137.14 19.0087 136.976 19.69 136.65 20.278C136.323 20.8567 135.87 21.3093 135.292 21.636C134.722 21.9533 134.088 22.112 133.388 22.112C132.426 22.112 131.67 21.8087 131.12 21.202V24.716H128.936V14.468H131.022V15.336C131.563 14.6827 132.352 14.356 133.388 14.356ZM133.01 20.32C133.57 20.32 134.027 20.1333 134.382 19.76C134.746 19.3773 134.928 18.8687 134.928 18.234C134.928 17.5993 134.746 17.0953 134.382 16.722C134.027 16.3393 133.57 16.148 133.01 16.148C132.45 16.148 131.988 16.3393 131.624 16.722C131.269 17.0953 131.092 17.5993 131.092 18.234C131.092 18.8687 131.269 19.3773 131.624 19.76C131.988 20.1333 132.45 20.32 133.01 20.32ZM138.602 14.468H140.786V22H138.602V14.468ZM139.694 13.418C139.292 13.418 138.966 13.3013 138.714 13.068C138.462 12.8347 138.336 12.5453 138.336 12.2C138.336 11.8547 138.462 11.5653 138.714 11.332C138.966 11.0987 139.292 10.982 139.694 10.982C140.095 10.982 140.422 11.094 140.674 11.318C140.926 11.542 141.052 11.822 141.052 12.158C141.052 12.522 140.926 12.8253 140.674 13.068C140.422 13.3013 140.095 13.418 139.694 13.418ZM150.191 18.262C150.191 18.29 150.177 18.486 150.149 18.85H144.451C144.553 19.3167 144.796 19.6853 145.179 19.956C145.561 20.2267 146.037 20.362 146.607 20.362C146.999 20.362 147.344 20.306 147.643 20.194C147.951 20.0727 148.235 19.886 148.497 19.634L149.659 20.894C148.949 21.706 147.913 22.112 146.551 22.112C145.701 22.112 144.95 21.9487 144.297 21.622C143.643 21.286 143.139 20.824 142.785 20.236C142.43 19.648 142.253 18.9807 142.253 18.234C142.253 17.4967 142.425 16.834 142.771 16.246C143.125 15.6487 143.606 15.1867 144.213 14.86C144.829 14.524 145.515 14.356 146.271 14.356C147.008 14.356 147.675 14.5147 148.273 14.832C148.87 15.1493 149.337 15.6067 149.673 16.204C150.018 16.792 150.191 17.478 150.191 18.262ZM146.285 16.008C145.79 16.008 145.375 16.148 145.039 16.428C144.703 16.708 144.497 17.0907 144.423 17.576H148.133C148.058 17.1 147.853 16.722 147.517 16.442C147.181 16.1527 146.77 16.008 146.285 16.008ZM159.415 14.468V20.74C159.415 22.1213 159.055 23.148 158.337 23.82C157.618 24.492 156.568 24.828 155.187 24.828C154.459 24.828 153.768 24.7393 153.115 24.562C152.461 24.3847 151.92 24.128 151.491 23.792L152.359 22.224C152.676 22.4853 153.077 22.6907 153.563 22.84C154.048 22.9987 154.533 23.078 155.019 23.078C155.775 23.078 156.33 22.9053 156.685 22.56C157.049 22.224 157.231 21.7107 157.231 21.02V20.698C156.661 21.3233 155.868 21.636 154.851 21.636C154.16 21.636 153.525 21.4867 152.947 21.188C152.377 20.88 151.925 20.4507 151.589 19.9C151.253 19.3493 151.085 18.7147 151.085 17.996C151.085 17.2773 151.253 16.6427 151.589 16.092C151.925 15.5413 152.377 15.1167 152.947 14.818C153.525 14.51 154.16 14.356 154.851 14.356C155.943 14.356 156.773 14.7153 157.343 15.434V14.468H159.415ZM155.285 19.844C155.863 19.844 156.335 19.676 156.699 19.34C157.072 18.9947 157.259 18.5467 157.259 17.996C157.259 17.4453 157.072 17.002 156.699 16.666C156.335 16.3207 155.863 16.148 155.285 16.148C154.706 16.148 154.23 16.3207 153.857 16.666C153.483 17.002 153.297 17.4453 153.297 17.996C153.297 18.5467 153.483 18.9947 153.857 19.34C154.23 19.676 154.706 19.844 155.285 19.844ZM168.825 18.262C168.825 18.29 168.811 18.486 168.783 18.85H163.085C163.188 19.3167 163.431 19.6853 163.813 19.956C164.196 20.2267 164.672 20.362 165.241 20.362C165.633 20.362 165.979 20.306 166.277 20.194C166.585 20.0727 166.87 19.886 167.131 19.634L168.293 20.894C167.584 21.706 166.548 22.112 165.185 22.112C164.336 22.112 163.585 21.9487 162.931 21.622C162.278 21.286 161.774 20.824 161.419 20.236C161.065 19.648 160.887 18.9807 160.887 18.234C160.887 17.4967 161.06 16.834 161.405 16.246C161.76 15.6487 162.241 15.1867 162.847 14.86C163.463 14.524 164.149 14.356 164.905 14.356C165.643 14.356 166.31 14.5147 166.907 14.832C167.505 15.1493 167.971 15.6067 168.307 16.204C168.653 16.792 168.825 17.478 168.825 18.262ZM164.919 16.008C164.425 16.008 164.009 16.148 163.673 16.428C163.337 16.708 163.132 17.0907 163.057 17.576H166.767C166.693 17.1 166.487 16.722 166.151 16.442C165.815 16.1527 165.405 16.008 164.919 16.008ZM170.279 11.612H172.463V22H170.279V11.612Z" fill="black"/>
<g filter="url(#filter1_dddddd)">
<rect x="64" y="32" width="170" height="100" rx="18" fill="url(#paint1_linear)"/>
</g>
<path d="M92.68 54.612V65H90.594V64.132C90.0527 64.7853 89.2687 65.112 88.242 65.112C87.5327 65.112 86.8887 64.9533 86.31 64.636C85.7407 64.3187 85.2927 63.866 84.966 63.278C84.6393 62.69 84.476 62.0087 84.476 61.234C84.476 60.4593 84.6393 59.778 84.966 59.19C85.2927 58.602 85.7407 58.1493 86.31 57.832C86.8887 57.5147 87.5327 57.356 88.242 57.356C89.2033 57.356 89.9547 57.6593 90.496 58.266V54.612H92.68ZM88.62 63.32C89.1707 63.32 89.628 63.1333 89.992 62.76C90.356 62.3773 90.538 61.8687 90.538 61.234C90.538 60.5993 90.356 60.0953 89.992 59.722C89.628 59.3393 89.1707 59.148 88.62 59.148C88.06 59.148 87.598 59.3393 87.234 59.722C86.87 60.0953 86.688 60.5993 86.688 61.234C86.688 61.8687 86.87 62.3773 87.234 62.76C87.598 63.1333 88.06 63.32 88.62 63.32ZM97.7394 57.356C98.906 57.356 99.802 57.636 100.427 58.196C101.053 58.7467 101.365 59.582 101.365 60.702V65H99.3214V64.062C98.9107 64.762 98.1454 65.112 97.0254 65.112C96.4467 65.112 95.9427 65.014 95.5134 64.818C95.0934 64.622 94.7714 64.3513 94.5474 64.006C94.3234 63.6607 94.2114 63.2687 94.2114 62.83C94.2114 62.13 94.4727 61.5793 94.9954 61.178C95.5274 60.7767 96.344 60.576 97.4454 60.576H99.1814C99.1814 60.1 99.0367 59.736 98.7474 59.484C98.458 59.2227 98.024 59.092 97.4454 59.092C97.044 59.092 96.6474 59.1573 96.2554 59.288C95.8727 59.4093 95.546 59.5773 95.2754 59.792L94.4914 58.266C94.902 57.9767 95.392 57.7527 95.9614 57.594C96.54 57.4353 97.1327 57.356 97.7394 57.356ZM97.5714 63.642C97.9447 63.642 98.276 63.558 98.5654 63.39C98.8547 63.2127 99.06 62.956 99.1814 62.62V61.85H97.6834C96.7874 61.85 96.3394 62.144 96.3394 62.732C96.3394 63.012 96.4467 63.236 96.6614 63.404C96.8854 63.5627 97.1887 63.642 97.5714 63.642ZM108.2 64.636C107.985 64.7947 107.719 64.916 107.402 65C107.094 65.0747 106.767 65.112 106.422 65.112C105.526 65.112 104.831 64.8833 104.336 64.426C103.851 63.9687 103.608 63.2967 103.608 62.41V59.316H102.446V57.636H103.608V55.802H105.792V57.636H107.668V59.316H105.792V62.382C105.792 62.6993 105.871 62.9467 106.03 63.124C106.198 63.292 106.431 63.376 106.73 63.376C107.075 63.376 107.369 63.2827 107.612 63.096L108.2 64.636ZM117.014 57.468V65H114.942V64.104C114.653 64.4307 114.307 64.6827 113.906 64.86C113.505 65.028 113.071 65.112 112.604 65.112C111.615 65.112 110.831 64.8273 110.252 64.258C109.673 63.6887 109.384 62.844 109.384 61.724V57.468H111.568V61.402C111.568 62.6153 112.077 63.222 113.094 63.222C113.617 63.222 114.037 63.054 114.354 62.718C114.671 62.3727 114.83 61.864 114.83 61.192V57.468H117.014ZM128.683 57.356C129.626 57.356 130.373 57.636 130.923 58.196C131.483 58.7467 131.763 59.5773 131.763 60.688V65H129.579V61.024C129.579 60.4267 129.453 59.9833 129.201 59.694C128.959 59.3953 128.609 59.246 128.151 59.246C127.638 59.246 127.232 59.414 126.933 59.75C126.635 60.0767 126.485 60.5667 126.485 61.22V65H124.301V61.024C124.301 59.8387 123.825 59.246 122.873 59.246C122.369 59.246 121.968 59.414 121.669 59.75C121.371 60.0767 121.221 60.5667 121.221 61.22V65H119.037V57.468H121.123V58.336C121.403 58.0187 121.744 57.776 122.145 57.608C122.556 57.44 123.004 57.356 123.489 57.356C124.021 57.356 124.502 57.4633 124.931 57.678C125.361 57.8833 125.706 58.1867 125.967 58.588C126.275 58.196 126.663 57.8927 127.129 57.678C127.605 57.4633 128.123 57.356 128.683 57.356ZM134.561 62.396C134.953 62.396 135.275 62.522 135.527 62.774C135.779 63.0167 135.905 63.3387 135.905 63.74C135.905 63.9267 135.882 64.1133 135.835 64.3C135.788 64.4867 135.686 64.7667 135.527 65.14L134.729 67.156H133.343L133.959 64.93C133.726 64.8367 133.539 64.6873 133.399 64.482C133.268 64.2673 133.203 64.02 133.203 63.74C133.203 63.3387 133.329 63.0167 133.581 62.774C133.842 62.522 134.169 62.396 134.561 62.396ZM148.994 57.468V67.716H146.81V64.202C146.268 64.8087 145.517 65.112 144.556 65.112C143.846 65.112 143.202 64.9533 142.624 64.636C142.054 64.3187 141.606 63.866 141.28 63.278C140.953 62.69 140.79 62.0087 140.79 61.234C140.79 60.4593 140.953 59.778 141.28 59.19C141.606 58.602 142.054 58.1493 142.624 57.832C143.202 57.5147 143.846 57.356 144.556 57.356C145.582 57.356 146.366 57.6827 146.908 58.336V57.468H148.994ZM144.934 63.32C145.484 63.32 145.942 63.1333 146.306 62.76C146.67 62.3773 146.852 61.8687 146.852 61.234C146.852 60.5993 146.67 60.0953 146.306 59.722C145.942 59.3393 145.484 59.148 144.934 59.148C144.374 59.148 143.912 59.3393 143.548 59.722C143.184 60.0953 143.002 60.5993 143.002 61.234C143.002 61.8687 143.184 62.3773 143.548 62.76C143.912 63.1333 144.374 63.32 144.934 63.32ZM158.604 57.468V65H156.532V64.104C156.242 64.4307 155.897 64.6827 155.496 64.86C155.094 65.028 154.66 65.112 154.194 65.112C153.204 65.112 152.42 64.8273 151.842 64.258C151.263 63.6887 150.974 62.844 150.974 61.724V57.468H153.158V61.402C153.158 62.6153 153.666 63.222 154.684 63.222C155.206 63.222 155.626 63.054 155.944 62.718C156.261 62.3727 156.42 61.864 156.42 61.192V57.468H158.604ZM168.005 61.262C168.005 61.29 167.991 61.486 167.963 61.85H162.265C162.368 62.3167 162.61 62.6853 162.993 62.956C163.376 63.2267 163.852 63.362 164.421 63.362C164.813 63.362 165.158 63.306 165.457 63.194C165.765 63.0727 166.05 62.886 166.311 62.634L167.473 63.894C166.764 64.706 165.728 65.112 164.365 65.112C163.516 65.112 162.764 64.9487 162.111 64.622C161.458 64.286 160.954 63.824 160.599 63.236C160.244 62.648 160.067 61.9807 160.067 61.234C160.067 60.4967 160.24 59.834 160.585 59.246C160.94 58.6487 161.42 58.1867 162.027 57.86C162.643 57.524 163.329 57.356 164.085 57.356C164.822 57.356 165.49 57.5147 166.087 57.832C166.684 58.1493 167.151 58.6067 167.487 59.204C167.832 59.792 168.005 60.478 168.005 61.262ZM164.099 59.008C163.604 59.008 163.189 59.148 162.853 59.428C162.517 59.708 162.312 60.0907 162.237 60.576H165.947C165.872 60.1 165.667 59.722 165.331 59.442C164.995 59.1527 164.584 59.008 164.099 59.008ZM169.459 54.612H171.643V65H169.459V54.612ZM173.67 54.612H175.854V65H173.67V54.612ZM185.259 61.262C185.259 61.29 185.245 61.486 185.217 61.85H179.519C179.622 62.3167 179.864 62.6853 180.247 62.956C180.63 63.2267 181.106 63.362 181.675 63.362C182.067 63.362 182.412 63.306 182.711 63.194C183.019 63.0727 183.304 62.886 183.565 62.634L184.727 63.894C184.018 64.706 182.982 65.112 181.619 65.112C180.77 65.112 180.018 64.9487 179.365 64.622C178.712 64.286 178.208 63.824 177.853 63.236C177.498 62.648 177.321 61.9807 177.321 61.234C177.321 60.4967 177.494 59.834 177.839 59.246C178.194 58.6487 178.674 58.1867 179.281 57.86C179.897 57.524 180.583 57.356 181.339 57.356C182.076 57.356 182.744 57.5147 183.341 57.832C183.938 58.1493 184.405 58.6067 184.741 59.204C185.086 59.792 185.259 60.478 185.259 61.262ZM181.353 59.008C180.858 59.008 180.443 59.148 180.107 59.428C179.771 59.708 179.566 60.0907 179.491 60.576H183.201C183.126 60.1 182.921 59.722 182.585 59.442C182.249 59.1527 181.838 59.008 181.353 59.008ZM187.539 65.112C187.156 65.112 186.834 64.9813 186.573 64.72C186.312 64.4587 186.181 64.132 186.181 63.74C186.181 63.3387 186.312 63.0167 186.573 62.774C186.834 62.522 187.156 62.396 187.539 62.396C187.922 62.396 188.244 62.522 188.505 62.774C188.766 63.0167 188.897 63.3387 188.897 63.74C188.897 64.132 188.766 64.4587 188.505 64.72C188.244 64.9813 187.922 65.112 187.539 65.112ZM195.18 64.636C194.966 64.7947 194.7 64.916 194.382 65C194.074 65.0747 193.748 65.112 193.402 65.112C192.506 65.112 191.811 64.8833 191.316 64.426C190.831 63.9687 190.588 63.2967 190.588 62.41V59.316H189.426V57.636H190.588V55.802H192.772V57.636H194.648V59.316H192.772V62.382C192.772 62.6993 192.852 62.9467 193.01 63.124C193.178 63.292 193.412 63.376 193.71 63.376C194.056 63.376 194.35 63.2827 194.592 63.096L195.18 64.636ZM201.194 65L199.542 62.69L197.834 65H195.454L198.352 61.206L195.552 57.468H198.002L199.598 59.666L201.236 57.468H203.56L200.76 61.15L203.672 65H201.194ZM209.591 64.636C209.376 64.7947 209.11 64.916 208.793 65C208.485 65.0747 208.158 65.112 207.813 65.112C206.917 65.112 206.221 64.8833 205.727 64.426C205.241 63.9687 204.999 63.2967 204.999 62.41V59.316H203.837V57.636H204.999V55.802H207.183V57.636H209.059V59.316H207.183V62.382C207.183 62.6993 207.262 62.9467 207.421 63.124C207.589 63.292 207.822 63.376 208.121 63.376C208.466 63.376 208.76 63.2827 209.003 63.096L209.591 64.636Z" fill="white"/>
<path d="M112.15 82.2V92H109.882V87.982H105.43V92H103.162V82.2H105.43V86.064H109.882V82.2H112.15ZM121.693 88.262C121.693 88.29 121.679 88.486 121.651 88.85H115.953C116.055 89.3167 116.298 89.6853 116.681 89.956C117.063 90.2267 117.539 90.362 118.109 90.362C118.501 90.362 118.846 90.306 119.145 90.194C119.453 90.0727 119.737 89.886 119.999 89.634L121.161 90.894C120.451 91.706 119.415 92.112 118.053 92.112C117.203 92.112 116.452 91.9487 115.799 91.622C115.145 91.286 114.641 90.824 114.287 90.236C113.932 89.648 113.755 88.9807 113.755 88.234C113.755 87.4967 113.927 86.834 114.273 86.246C114.627 85.6487 115.108 85.1867 115.715 84.86C116.331 84.524 117.017 84.356 117.773 84.356C118.51 84.356 119.177 84.5147 119.775 84.832C120.372 85.1493 120.839 85.6067 121.175 86.204C121.52 86.792 121.693 87.478 121.693 88.262ZM117.787 86.008C117.292 86.008 116.877 86.148 116.541 86.428C116.205 86.708 115.999 87.0907 115.925 87.576H119.635C119.56 87.1 119.355 86.722 119.019 86.442C118.683 86.1527 118.272 86.008 117.787 86.008ZM125.98 84.356C127.146 84.356 128.042 84.636 128.668 85.196C129.293 85.7467 129.606 86.582 129.606 87.702V92H127.562V91.062C127.151 91.762 126.386 92.112 125.266 92.112C124.687 92.112 124.183 92.014 123.754 91.818C123.334 91.622 123.012 91.3513 122.788 91.006C122.564 90.6607 122.452 90.2687 122.452 89.83C122.452 89.13 122.713 88.5793 123.236 88.178C123.768 87.7767 124.584 87.576 125.686 87.576H127.422C127.422 87.1 127.277 86.736 126.988 86.484C126.698 86.2227 126.264 86.092 125.686 86.092C125.284 86.092 124.888 86.1573 124.496 86.288C124.113 86.4093 123.786 86.5773 123.516 86.792L122.732 85.266C123.142 84.9767 123.632 84.7527 124.202 84.594C124.78 84.4353 125.373 84.356 125.98 84.356ZM125.812 90.642C126.185 90.642 126.516 90.558 126.806 90.39C127.095 90.2127 127.3 89.956 127.422 89.62V88.85H125.924C125.028 88.85 124.58 89.144 124.58 89.732C124.58 90.012 124.687 90.236 124.902 90.404C125.126 90.5627 125.429 90.642 125.812 90.642ZM139.336 81.612V92H137.25V91.132C136.709 91.7853 135.925 92.112 134.898 92.112C134.189 92.112 133.545 91.9533 132.966 91.636C132.397 91.3187 131.949 90.866 131.622 90.278C131.296 89.69 131.132 89.0087 131.132 88.234C131.132 87.4593 131.296 86.778 131.622 86.19C131.949 85.602 132.397 85.1493 132.966 84.832C133.545 84.5147 134.189 84.356 134.898 84.356C135.86 84.356 136.611 84.6593 137.152 85.266V81.612H139.336ZM135.276 90.32C135.827 90.32 136.284 90.1333 136.648 89.76C137.012 89.3773 137.194 88.8687 137.194 88.234C137.194 87.5993 137.012 87.0953 136.648 86.722C136.284 86.3393 135.827 86.148 135.276 86.148C134.716 86.148 134.254 86.3393 133.89 86.722C133.526 87.0953 133.344 87.5993 133.344 88.234C133.344 88.8687 133.526 89.3773 133.89 89.76C134.254 90.1333 134.716 90.32 135.276 90.32ZM141.358 81.612H143.542V92H141.358V81.612ZM145.569 84.468H147.753V92H145.569V84.468ZM146.661 83.418C146.259 83.418 145.933 83.3013 145.681 83.068C145.429 82.8347 145.303 82.5453 145.303 82.2C145.303 81.8547 145.429 81.5653 145.681 81.332C145.933 81.0987 146.259 80.982 146.661 80.982C147.062 80.982 147.389 81.094 147.641 81.318C147.893 81.542 148.019 81.822 148.019 82.158C148.019 82.522 147.893 82.8253 147.641 83.068C147.389 83.3013 147.062 83.418 146.661 83.418ZM154.357 84.356C155.291 84.356 156.042 84.636 156.611 85.196C157.19 85.756 157.479 86.5867 157.479 87.688V92H155.295V88.024C155.295 87.4267 155.165 86.9833 154.903 86.694C154.642 86.3953 154.264 86.246 153.769 86.246C153.219 86.246 152.78 86.4187 152.453 86.764C152.127 87.1 151.963 87.604 151.963 88.276V92H149.779V84.468H151.865V85.35C152.155 85.0327 152.514 84.79 152.943 84.622C153.373 84.4447 153.844 84.356 154.357 84.356ZM166.919 88.262C166.919 88.29 166.905 88.486 166.877 88.85H161.179C161.282 89.3167 161.525 89.6853 161.907 89.956C162.29 90.2267 162.766 90.362 163.335 90.362C163.727 90.362 164.073 90.306 164.371 90.194C164.679 90.0727 164.964 89.886 165.225 89.634L166.387 90.894C165.678 91.706 164.642 92.112 163.279 92.112C162.43 92.112 161.679 91.9487 161.025 91.622C160.372 91.286 159.868 90.824 159.513 90.236C159.159 89.648 158.981 88.9807 158.981 88.234C158.981 87.4967 159.154 86.834 159.499 86.246C159.854 85.6487 160.335 85.1867 160.941 84.86C161.557 84.524 162.243 84.356 162.999 84.356C163.737 84.356 164.404 84.5147 165.001 84.832C165.599 85.1493 166.065 85.6067 166.401 86.204C166.747 86.792 166.919 87.478 166.919 88.262ZM163.013 86.008C162.519 86.008 162.103 86.148 161.767 86.428C161.431 86.708 161.226 87.0907 161.151 87.576H164.861C164.787 87.1 164.581 86.722 164.245 86.442C163.909 86.1527 163.499 86.008 163.013 86.008ZM103.162 99.2H105.43V107.152H110.344V109H103.162V99.2ZM118.781 105.262C118.781 105.29 118.767 105.486 118.739 105.85H113.041C113.143 106.317 113.386 106.685 113.769 106.956C114.151 107.227 114.627 107.362 115.197 107.362C115.589 107.362 115.934 107.306 116.233 107.194C116.541 107.073 116.825 106.886 117.087 106.634L118.249 107.894C117.539 108.706 116.503 109.112 115.141 109.112C114.291 109.112 113.54 108.949 112.887 108.622C112.233 108.286 111.729 107.824 111.375 107.236C111.02 106.648 110.843 105.981 110.843 105.234C110.843 104.497 111.015 103.834 111.361 103.246C111.715 102.649 112.196 102.187 112.803 101.86C113.419 101.524 114.105 101.356 114.861 101.356C115.598 101.356 116.265 101.515 116.863 101.832C117.46 102.149 117.927 102.607 118.263 103.204C118.608 103.792 118.781 104.478 118.781 105.262ZM114.875 103.008C114.38 103.008 113.965 103.148 113.629 103.428C113.293 103.708 113.087 104.091 113.013 104.576H116.723C116.648 104.1 116.443 103.722 116.107 103.442C115.771 103.153 115.36 103.008 114.875 103.008ZM123.067 101.356C124.234 101.356 125.13 101.636 125.755 102.196C126.381 102.747 126.693 103.582 126.693 104.702V109H124.649V108.062C124.239 108.762 123.473 109.112 122.353 109.112C121.775 109.112 121.271 109.014 120.841 108.818C120.421 108.622 120.099 108.351 119.875 108.006C119.651 107.661 119.539 107.269 119.539 106.83C119.539 106.13 119.801 105.579 120.323 105.178C120.855 104.777 121.672 104.576 122.773 104.576H124.509C124.509 104.1 124.365 103.736 124.075 103.484C123.786 103.223 123.352 103.092 122.773 103.092C122.372 103.092 121.975 103.157 121.583 103.288C121.201 103.409 120.874 103.577 120.603 103.792L119.819 102.266C120.23 101.977 120.72 101.753 121.289 101.594C121.868 101.435 122.461 101.356 123.067 101.356ZM122.899 107.642C123.273 107.642 123.604 107.558 123.893 107.39C124.183 107.213 124.388 106.956 124.509 106.62V105.85H123.011C122.115 105.85 121.667 106.144 121.667 106.732C121.667 107.012 121.775 107.236 121.989 107.404C122.213 107.563 122.517 107.642 122.899 107.642ZM136.424 98.612V109H134.338V108.132C133.797 108.785 133.013 109.112 131.986 109.112C131.277 109.112 130.633 108.953 130.054 108.636C129.485 108.319 129.037 107.866 128.71 107.278C128.383 106.69 128.22 106.009 128.22 105.234C128.22 104.459 128.383 103.778 128.71 103.19C129.037 102.602 129.485 102.149 130.054 101.832C130.633 101.515 131.277 101.356 131.986 101.356C132.947 101.356 133.699 101.659 134.24 102.266V98.612H136.424ZM132.364 107.32C132.915 107.32 133.372 107.133 133.736 106.76C134.1 106.377 134.282 105.869 134.282 105.234C134.282 104.599 134.1 104.095 133.736 103.722C133.372 103.339 132.915 103.148 132.364 103.148C131.804 103.148 131.342 103.339 130.978 103.722C130.614 104.095 130.432 104.599 130.432 105.234C130.432 105.869 130.614 106.377 130.978 106.76C131.342 107.133 131.804 107.32 132.364 107.32ZM138.6 99.2H140.868V109H138.6V99.2ZM147.617 101.356C148.551 101.356 149.302 101.636 149.871 102.196C150.45 102.756 150.739 103.587 150.739 104.688V109H148.555V105.024C148.555 104.427 148.425 103.983 148.163 103.694C147.902 103.395 147.524 103.246 147.029 103.246C146.479 103.246 146.04 103.419 145.713 103.764C145.387 104.1 145.223 104.604 145.223 105.276V109H143.039V101.468H145.125V102.35C145.415 102.033 145.774 101.79 146.203 101.622C146.633 101.445 147.104 101.356 147.617 101.356Z" fill="white"/>
<path d="M89 70V82C89 84.7614 91.2386 87 94 87H101" stroke="white"/>
<path d="M89 78V100C89 102.761 91.2386 105 94 105H101" stroke="white"/>
<path d="M292 77V99C292 101.761 294.239 104 297 104H304" stroke="white"/>
<path d="M292 93V115C292 117.761 294.239 120 297 120H304" stroke="white"/>
<path d="M292 69V82C292 84.7614 294.239 87 297 87H304" stroke="white"/>
<path d="M506.207 12.2H510.659C511.723 12.2 512.661 12.4053 513.473 12.816C514.294 13.2173 514.929 13.7867 515.377 14.524C515.834 15.2613 516.063 16.12 516.063 17.1C516.063 18.08 515.834 18.9387 515.377 19.676C514.929 20.4133 514.294 20.9873 513.473 21.398C512.661 21.7993 511.723 22 510.659 22H506.207V12.2ZM510.547 20.138C511.527 20.138 512.306 19.8673 512.885 19.326C513.473 18.7753 513.767 18.0333 513.767 17.1C513.767 16.1667 513.473 15.4293 512.885 14.888C512.306 14.3373 511.527 14.062 510.547 14.062H508.475V20.138H510.547ZM524.997 18.262C524.997 18.29 524.983 18.486 524.955 18.85H519.257C519.36 19.3167 519.603 19.6853 519.985 19.956C520.368 20.2267 520.844 20.362 521.413 20.362C521.805 20.362 522.151 20.306 522.449 20.194C522.757 20.0727 523.042 19.886 523.303 19.634L524.465 20.894C523.756 21.706 522.72 22.112 521.357 22.112C520.508 22.112 519.757 21.9487 519.103 21.622C518.45 21.286 517.946 20.824 517.591 20.236C517.237 19.648 517.059 18.9807 517.059 18.234C517.059 17.4967 517.232 16.834 517.577 16.246C517.932 15.6487 518.413 15.1867 519.019 14.86C519.635 14.524 520.321 14.356 521.077 14.356C521.815 14.356 522.482 14.5147 523.079 14.832C523.677 15.1493 524.143 15.6067 524.479 16.204C524.825 16.792 524.997 17.478 524.997 18.262ZM521.091 16.008C520.597 16.008 520.181 16.148 519.845 16.428C519.509 16.708 519.304 17.0907 519.229 17.576H522.939C522.865 17.1 522.659 16.722 522.323 16.442C521.987 16.1527 521.577 16.008 521.091 16.008ZM534.039 14.468V22H531.967V21.104C531.678 21.4307 531.333 21.6827 530.931 21.86C530.53 22.028 530.096 22.112 529.629 22.112C528.64 22.112 527.856 21.8273 527.277 21.258C526.699 20.6887 526.409 19.844 526.409 18.724V14.468H528.593V18.402C528.593 19.6153 529.102 20.222 530.119 20.222C530.642 20.222 531.062 20.054 531.379 19.718C531.697 19.3727 531.855 18.864 531.855 18.192V14.468H534.039ZM540.921 21.636C540.706 21.7947 540.44 21.916 540.123 22C539.815 22.0747 539.488 22.112 539.143 22.112C538.247 22.112 537.551 21.8833 537.057 21.426C536.571 20.9687 536.329 20.2967 536.329 19.41V16.316H535.167V14.636H536.329V12.802H538.513V14.636H540.389V16.316H538.513V19.382C538.513 19.6993 538.592 19.9467 538.751 20.124C538.919 20.292 539.152 20.376 539.451 20.376C539.796 20.376 540.09 20.2827 540.333 20.096L540.921 21.636ZM544.681 22.112C544.055 22.112 543.444 22.0373 542.847 21.888C542.249 21.7293 541.773 21.5333 541.419 21.3L542.147 19.732C542.483 19.9467 542.889 20.124 543.365 20.264C543.841 20.3947 544.307 20.46 544.765 20.46C545.689 20.46 546.151 20.2313 546.151 19.774C546.151 19.5593 546.025 19.4053 545.773 19.312C545.521 19.2187 545.133 19.1393 544.611 19.074C543.995 18.9807 543.486 18.8733 543.085 18.752C542.683 18.6307 542.333 18.416 542.035 18.108C541.745 17.8 541.601 17.3613 541.601 16.792C541.601 16.316 541.736 15.896 542.007 15.532C542.287 15.1587 542.688 14.8693 543.211 14.664C543.743 14.4587 544.368 14.356 545.087 14.356C545.619 14.356 546.146 14.4167 546.669 14.538C547.201 14.65 547.639 14.8087 547.985 15.014L547.257 16.568C546.594 16.1947 545.871 16.008 545.087 16.008C544.62 16.008 544.27 16.0733 544.037 16.204C543.803 16.3347 543.687 16.5027 543.687 16.708C543.687 16.9413 543.813 17.1047 544.065 17.198C544.317 17.2913 544.718 17.38 545.269 17.464C545.885 17.5667 546.389 17.6787 546.781 17.8C547.173 17.912 547.513 18.122 547.803 18.43C548.092 18.738 548.237 19.1673 548.237 19.718C548.237 20.1847 548.097 20.6 547.817 20.964C547.537 21.328 547.126 21.6127 546.585 21.818C546.053 22.014 545.418 22.112 544.681 22.112ZM553.224 22.112C552.422 22.112 551.698 21.9487 551.054 21.622C550.42 21.286 549.92 20.824 549.556 20.236C549.202 19.648 549.024 18.9807 549.024 18.234C549.024 17.4873 549.202 16.82 549.556 16.232C549.92 15.644 550.42 15.1867 551.054 14.86C551.698 14.524 552.422 14.356 553.224 14.356C554.018 14.356 554.708 14.524 555.296 14.86C555.894 15.1867 556.328 15.658 556.598 16.274L554.904 17.184C554.512 16.4933 553.948 16.148 553.21 16.148C552.641 16.148 552.17 16.3347 551.796 16.708C551.423 17.0813 551.236 17.59 551.236 18.234C551.236 18.878 551.423 19.3867 551.796 19.76C552.17 20.1333 552.641 20.32 553.21 20.32C553.957 20.32 554.522 19.9747 554.904 19.284L556.598 20.208C556.328 20.8053 555.894 21.272 555.296 21.608C554.708 21.944 554.018 22.112 553.224 22.112ZM562.379 14.356C563.312 14.356 564.064 14.636 564.633 15.196C565.212 15.756 565.501 16.5867 565.501 17.688V22H563.317V18.024C563.317 17.4267 563.186 16.9833 562.925 16.694C562.664 16.3953 562.286 16.246 561.791 16.246C561.24 16.246 560.802 16.4187 560.475 16.764C560.148 17.1 559.985 17.604 559.985 18.276V22H557.801V11.612H559.985V15.252C560.274 14.9627 560.624 14.7433 561.035 14.594C561.446 14.4353 561.894 14.356 562.379 14.356ZM574.941 18.262C574.941 18.29 574.927 18.486 574.899 18.85H569.201C569.303 19.3167 569.546 19.6853 569.929 19.956C570.311 20.2267 570.787 20.362 571.357 20.362C571.749 20.362 572.094 20.306 572.393 20.194C572.701 20.0727 572.985 19.886 573.247 19.634L574.409 20.894C573.699 21.706 572.663 22.112 571.301 22.112C570.451 22.112 569.7 21.9487 569.047 21.622C568.393 21.286 567.889 20.824 567.535 20.236C567.18 19.648 567.003 18.9807 567.003 18.234C567.003 17.4967 567.175 16.834 567.521 16.246C567.875 15.6487 568.356 15.1867 568.963 14.86C569.579 14.524 570.265 14.356 571.021 14.356C571.758 14.356 572.425 14.5147 573.023 14.832C573.62 15.1493 574.087 15.6067 574.423 16.204C574.768 16.792 574.941 17.478 574.941 18.262ZM571.035 16.008C570.54 16.008 570.125 16.148 569.789 16.428C569.453 16.708 569.247 17.0907 569.173 17.576H572.883C572.808 17.1 572.603 16.722 572.267 16.442C571.931 16.1527 571.52 16.008 571.035 16.008ZM595.326 12.2L592.12 22H589.684L587.528 15.364L585.302 22H582.88L579.66 12.2H582.012L584.224 19.088L586.534 12.2H588.634L590.874 19.144L593.156 12.2H595.326ZM603.255 18.262C603.255 18.29 603.241 18.486 603.213 18.85H597.515C597.618 19.3167 597.86 19.6853 598.243 19.956C598.626 20.2267 599.102 20.362 599.671 20.362C600.063 20.362 600.408 20.306 600.707 20.194C601.015 20.0727 601.3 19.886 601.561 19.634L602.723 20.894C602.014 21.706 600.978 22.112 599.615 22.112C598.766 22.112 598.014 21.9487 597.361 21.622C596.708 21.286 596.204 20.824 595.849 20.236C595.494 19.648 595.317 18.9807 595.317 18.234C595.317 17.4967 595.49 16.834 595.835 16.246C596.19 15.6487 596.67 15.1867 597.277 14.86C597.893 14.524 598.579 14.356 599.335 14.356C600.072 14.356 600.74 14.5147 601.337 14.832C601.934 15.1493 602.401 15.6067 602.737 16.204C603.082 16.792 603.255 17.478 603.255 18.262ZM599.349 16.008C598.854 16.008 598.439 16.148 598.103 16.428C597.767 16.708 597.562 17.0907 597.487 17.576H601.197C601.122 17.1 600.917 16.722 600.581 16.442C600.245 16.1527 599.834 16.008 599.349 16.008ZM604.709 11.612H606.893V22H604.709V11.612ZM608.92 11.612H611.104V22H608.92V11.612ZM620.509 18.262C620.509 18.29 620.495 18.486 620.467 18.85H614.769C614.872 19.3167 615.114 19.6853 615.497 19.956C615.88 20.2267 616.356 20.362 616.925 20.362C617.317 20.362 617.662 20.306 617.961 20.194C618.269 20.0727 618.554 19.886 618.815 19.634L619.977 20.894C619.268 21.706 618.232 22.112 616.869 22.112C616.02 22.112 615.268 21.9487 614.615 21.622C613.962 21.286 613.458 20.824 613.103 20.236C612.748 19.648 612.571 18.9807 612.571 18.234C612.571 17.4967 612.744 16.834 613.089 16.246C613.444 15.6487 613.924 15.1867 614.531 14.86C615.147 14.524 615.833 14.356 616.589 14.356C617.326 14.356 617.994 14.5147 618.591 14.832C619.188 15.1493 619.655 15.6067 619.991 16.204C620.336 16.792 620.509 17.478 620.509 18.262ZM616.603 16.008C616.108 16.008 615.693 16.148 615.357 16.428C615.021 16.708 614.816 17.0907 614.741 17.576H618.451C618.376 17.1 618.171 16.722 617.835 16.442C617.499 16.1527 617.088 16.008 616.603 16.008Z" fill="black"/>
<g filter="url(#filter2_dddddd)">
<rect x="480" y="32" width="170" height="100" rx="18" fill="#002D5A"/>
<rect x="480" y="32" width="170" height="100" rx="18" fill="url(#paint2_linear)"/>
</g>
<path d="M508.68 54.612V65H506.594V64.132C506.053 64.7853 505.269 65.112 504.242 65.112C503.533 65.112 502.889 64.9533 502.31 64.636C501.741 64.3187 501.293 63.866 500.966 63.278C500.639 62.69 500.476 62.0087 500.476 61.234C500.476 60.4593 500.639 59.778 500.966 59.19C501.293 58.602 501.741 58.1493 502.31 57.832C502.889 57.5147 503.533 57.356 504.242 57.356C505.203 57.356 505.955 57.6593 506.496 58.266V54.612H508.68ZM504.62 63.32C505.171 63.32 505.628 63.1333 505.992 62.76C506.356 62.3773 506.538 61.8687 506.538 61.234C506.538 60.5993 506.356 60.0953 505.992 59.722C505.628 59.3393 505.171 59.148 504.62 59.148C504.06 59.148 503.598 59.3393 503.234 59.722C502.87 60.0953 502.688 60.5993 502.688 61.234C502.688 61.8687 502.87 62.3773 503.234 62.76C503.598 63.1333 504.06 63.32 504.62 63.32ZM513.739 57.356C514.906 57.356 515.802 57.636 516.427 58.196C517.053 58.7467 517.365 59.582 517.365 60.702V65H515.321V64.062C514.911 64.762 514.145 65.112 513.025 65.112C512.447 65.112 511.943 65.014 511.513 64.818C511.093 64.622 510.771 64.3513 510.547 64.006C510.323 63.6607 510.211 63.2687 510.211 62.83C510.211 62.13 510.473 61.5793 510.995 61.178C511.527 60.7767 512.344 60.576 513.445 60.576H515.181C515.181 60.1 515.037 59.736 514.747 59.484C514.458 59.2227 514.024 59.092 513.445 59.092C513.044 59.092 512.647 59.1573 512.255 59.288C511.873 59.4093 511.546 59.5773 511.275 59.792L510.491 58.266C510.902 57.9767 511.392 57.7527 511.961 57.594C512.54 57.4353 513.133 57.356 513.739 57.356ZM513.571 63.642C513.945 63.642 514.276 63.558 514.565 63.39C514.855 63.2127 515.06 62.956 515.181 62.62V61.85H513.683C512.787 61.85 512.339 62.144 512.339 62.732C512.339 63.012 512.447 63.236 512.661 63.404C512.885 63.5627 513.189 63.642 513.571 63.642ZM524.2 64.636C523.985 64.7947 523.719 64.916 523.402 65C523.094 65.0747 522.767 65.112 522.422 65.112C521.526 65.112 520.831 64.8833 520.336 64.426C519.851 63.9687 519.608 63.2967 519.608 62.41V59.316H518.446V57.636H519.608V55.802H521.792V57.636H523.668V59.316H521.792V62.382C521.792 62.6993 521.871 62.9467 522.03 63.124C522.198 63.292 522.431 63.376 522.73 63.376C523.075 63.376 523.369 63.2827 523.612 63.096L524.2 64.636ZM533.014 57.468V65H530.942V64.104C530.653 64.4307 530.307 64.6827 529.906 64.86C529.505 65.028 529.071 65.112 528.604 65.112C527.615 65.112 526.831 64.8273 526.252 64.258C525.673 63.6887 525.384 62.844 525.384 61.724V57.468H527.568V61.402C527.568 62.6153 528.077 63.222 529.094 63.222C529.617 63.222 530.037 63.054 530.354 62.718C530.671 62.3727 530.83 61.864 530.83 61.192V57.468H533.014ZM544.683 57.356C545.626 57.356 546.373 57.636 546.923 58.196C547.483 58.7467 547.763 59.5773 547.763 60.688V65H545.579V61.024C545.579 60.4267 545.453 59.9833 545.201 59.694C544.959 59.3953 544.609 59.246 544.151 59.246C543.638 59.246 543.232 59.414 542.933 59.75C542.635 60.0767 542.485 60.5667 542.485 61.22V65H540.301V61.024C540.301 59.8387 539.825 59.246 538.873 59.246C538.369 59.246 537.968 59.414 537.669 59.75C537.371 60.0767 537.221 60.5667 537.221 61.22V65H535.037V57.468H537.123V58.336C537.403 58.0187 537.744 57.776 538.145 57.608C538.556 57.44 539.004 57.356 539.489 57.356C540.021 57.356 540.502 57.4633 540.931 57.678C541.361 57.8833 541.706 58.1867 541.967 58.588C542.275 58.196 542.663 57.8927 543.129 57.678C543.605 57.4633 544.123 57.356 544.683 57.356ZM550.547 65.112C550.164 65.112 549.842 64.9813 549.581 64.72C549.32 64.4587 549.189 64.132 549.189 63.74C549.189 63.3387 549.32 63.0167 549.581 62.774C549.842 62.522 550.164 62.396 550.547 62.396C550.93 62.396 551.252 62.522 551.513 62.774C551.774 63.0167 551.905 63.3387 551.905 63.74C551.905 64.132 551.774 64.4587 551.513 64.72C551.252 64.9813 550.93 65.112 550.547 65.112ZM558.188 64.636C557.974 64.7947 557.708 64.916 557.39 65C557.082 65.0747 556.756 65.112 556.41 65.112C555.514 65.112 554.819 64.8833 554.324 64.426C553.839 63.9687 553.596 63.2967 553.596 62.41V59.316H552.434V57.636H553.596V55.802H555.78V57.636H557.656V59.316H555.78V62.382C555.78 62.6993 555.86 62.9467 556.018 63.124C556.186 63.292 556.42 63.376 556.718 63.376C557.064 63.376 557.358 63.2827 557.6 63.096L558.188 64.636ZM564.202 65L562.55 62.69L560.842 65H558.462L561.36 61.206L558.56 57.468H561.01L562.606 59.666L564.244 57.468H566.568L563.768 61.15L566.68 65H564.202ZM572.598 64.636C572.384 64.7947 572.118 64.916 571.8 65C571.492 65.0747 571.166 65.112 570.82 65.112C569.924 65.112 569.229 64.8833 568.734 64.426C568.249 63.9687 568.006 63.2967 568.006 62.41V59.316H566.844V57.636H568.006V55.802H570.19V57.636H572.066V59.316H570.19V62.382C570.19 62.6993 570.27 62.9467 570.428 63.124C570.596 63.292 570.83 63.376 571.128 63.376C571.474 63.376 571.768 63.2827 572.01 63.096L572.598 64.636Z" fill="white"/>
<path d="M528.15 82.2V92H525.882V87.982H521.43V92H519.162V82.2H521.43V86.064H525.882V82.2H528.15ZM537.693 88.262C537.693 88.29 537.679 88.486 537.651 88.85H531.953C532.055 89.3167 532.298 89.6853 532.681 89.956C533.063 90.2267 533.539 90.362 534.109 90.362C534.501 90.362 534.846 90.306 535.145 90.194C535.453 90.0727 535.737 89.886 535.999 89.634L537.161 90.894C536.451 91.706 535.415 92.112 534.053 92.112C533.203 92.112 532.452 91.9487 531.799 91.622C531.145 91.286 530.641 90.824 530.287 90.236C529.932 89.648 529.755 88.9807 529.755 88.234C529.755 87.4967 529.927 86.834 530.273 86.246C530.627 85.6487 531.108 85.1867 531.715 84.86C532.331 84.524 533.017 84.356 533.773 84.356C534.51 84.356 535.177 84.5147 535.775 84.832C536.372 85.1493 536.839 85.6067 537.175 86.204C537.52 86.792 537.693 87.478 537.693 88.262ZM533.787 86.008C533.292 86.008 532.877 86.148 532.541 86.428C532.205 86.708 531.999 87.0907 531.925 87.576H535.635C535.56 87.1 535.355 86.722 535.019 86.442C534.683 86.1527 534.272 86.008 533.787 86.008ZM541.98 84.356C543.146 84.356 544.042 84.636 544.668 85.196C545.293 85.7467 545.606 86.582 545.606 87.702V92H543.562V91.062C543.151 91.762 542.386 92.112 541.266 92.112C540.687 92.112 540.183 92.014 539.754 91.818C539.334 91.622 539.012 91.3513 538.788 91.006C538.564 90.6607 538.452 90.2687 538.452 89.83C538.452 89.13 538.713 88.5793 539.236 88.178C539.768 87.7767 540.584 87.576 541.686 87.576H543.422C543.422 87.1 543.277 86.736 542.988 86.484C542.698 86.2227 542.264 86.092 541.686 86.092C541.284 86.092 540.888 86.1573 540.496 86.288C540.113 86.4093 539.786 86.5773 539.516 86.792L538.732 85.266C539.142 84.9767 539.632 84.7527 540.202 84.594C540.78 84.4353 541.373 84.356 541.98 84.356ZM541.812 90.642C542.185 90.642 542.516 90.558 542.806 90.39C543.095 90.2127 543.3 89.956 543.422 89.62V88.85H541.924C541.028 88.85 540.58 89.144 540.58 89.732C540.58 90.012 540.687 90.236 540.902 90.404C541.126 90.5627 541.429 90.642 541.812 90.642ZM555.336 81.612V92H553.25V91.132C552.709 91.7853 551.925 92.112 550.898 92.112C550.189 92.112 549.545 91.9533 548.966 91.636C548.397 91.3187 547.949 90.866 547.622 90.278C547.296 89.69 547.132 89.0087 547.132 88.234C547.132 87.4593 547.296 86.778 547.622 86.19C547.949 85.602 548.397 85.1493 548.966 84.832C549.545 84.5147 550.189 84.356 550.898 84.356C551.86 84.356 552.611 84.6593 553.152 85.266V81.612H555.336ZM551.276 90.32C551.827 90.32 552.284 90.1333 552.648 89.76C553.012 89.3773 553.194 88.8687 553.194 88.234C553.194 87.5993 553.012 87.0953 552.648 86.722C552.284 86.3393 551.827 86.148 551.276 86.148C550.716 86.148 550.254 86.3393 549.89 86.722C549.526 87.0953 549.344 87.5993 549.344 88.234C549.344 88.8687 549.526 89.3773 549.89 89.76C550.254 90.1333 550.716 90.32 551.276 90.32ZM557.358 81.612H559.542V92H557.358V81.612ZM561.569 84.468H563.753V92H561.569V84.468ZM562.661 83.418C562.259 83.418 561.933 83.3013 561.681 83.068C561.429 82.8347 561.303 82.5453 561.303 82.2C561.303 81.8547 561.429 81.5653 561.681 81.332C561.933 81.0987 562.259 80.982 562.661 80.982C563.062 80.982 563.389 81.094 563.641 81.318C563.893 81.542 564.019 81.822 564.019 82.158C564.019 82.522 563.893 82.8253 563.641 83.068C563.389 83.3013 563.062 83.418 562.661 83.418ZM570.357 84.356C571.291 84.356 572.042 84.636 572.611 85.196C573.19 85.756 573.479 86.5867 573.479 87.688V92H571.295V88.024C571.295 87.4267 571.165 86.9833 570.903 86.694C570.642 86.3953 570.264 86.246 569.769 86.246C569.219 86.246 568.78 86.4187 568.453 86.764C568.127 87.1 567.963 87.604 567.963 88.276V92H565.779V84.468H567.865V85.35C568.155 85.0327 568.514 84.79 568.943 84.622C569.373 84.4447 569.844 84.356 570.357 84.356ZM582.919 88.262C582.919 88.29 582.905 88.486 582.877 88.85H577.179C577.282 89.3167 577.525 89.6853 577.907 89.956C578.29 90.2267 578.766 90.362 579.335 90.362C579.727 90.362 580.073 90.306 580.371 90.194C580.679 90.0727 580.964 89.886 581.225 89.634L582.387 90.894C581.678 91.706 580.642 92.112 579.279 92.112C578.43 92.112 577.679 91.9487 577.025 91.622C576.372 91.286 575.868 90.824 575.513 90.236C575.159 89.648 574.981 88.9807 574.981 88.234C574.981 87.4967 575.154 86.834 575.499 86.246C575.854 85.6487 576.335 85.1867 576.941 84.86C577.557 84.524 578.243 84.356 578.999 84.356C579.737 84.356 580.404 84.5147 581.001 84.832C581.599 85.1493 582.065 85.6067 582.401 86.204C582.747 86.792 582.919 87.478 582.919 88.262ZM579.013 86.008C578.519 86.008 578.103 86.148 577.767 86.428C577.431 86.708 577.226 87.0907 577.151 87.576H580.861C580.787 87.1 580.581 86.722 580.245 86.442C579.909 86.1527 579.499 86.008 579.013 86.008ZM519.162 99.2H521.43V107.152H526.344V109H519.162V99.2ZM534.781 105.262C534.781 105.29 534.767 105.486 534.739 105.85H529.041C529.143 106.317 529.386 106.685 529.769 106.956C530.151 107.227 530.627 107.362 531.197 107.362C531.589 107.362 531.934 107.306 532.233 107.194C532.541 107.073 532.825 106.886 533.087 106.634L534.249 107.894C533.539 108.706 532.503 109.112 531.141 109.112C530.291 109.112 529.54 108.949 528.887 108.622C528.233 108.286 527.729 107.824 527.375 107.236C527.02 106.648 526.843 105.981 526.843 105.234C526.843 104.497 527.015 103.834 527.361 103.246C527.715 102.649 528.196 102.187 528.803 101.86C529.419 101.524 530.105 101.356 530.861 101.356C531.598 101.356 532.265 101.515 532.863 101.832C533.46 102.149 533.927 102.607 534.263 103.204C534.608 103.792 534.781 104.478 534.781 105.262ZM530.875 103.008C530.38 103.008 529.965 103.148 529.629 103.428C529.293 103.708 529.087 104.091 529.013 104.576H532.723C532.648 104.1 532.443 103.722 532.107 103.442C531.771 103.153 531.36 103.008 530.875 103.008ZM539.067 101.356C540.234 101.356 541.13 101.636 541.755 102.196C542.381 102.747 542.693 103.582 542.693 104.702V109H540.649V108.062C540.239 108.762 539.473 109.112 538.353 109.112C537.775 109.112 537.271 109.014 536.841 108.818C536.421 108.622 536.099 108.351 535.875 108.006C535.651 107.661 535.539 107.269 535.539 106.83C535.539 106.13 535.801 105.579 536.323 105.178C536.855 104.777 537.672 104.576 538.773 104.576H540.509C540.509 104.1 540.365 103.736 540.075 103.484C539.786 103.223 539.352 103.092 538.773 103.092C538.372 103.092 537.975 103.157 537.583 103.288C537.201 103.409 536.874 103.577 536.603 103.792L535.819 102.266C536.23 101.977 536.72 101.753 537.289 101.594C537.868 101.435 538.461 101.356 539.067 101.356ZM538.899 107.642C539.273 107.642 539.604 107.558 539.893 107.39C540.183 107.213 540.388 106.956 540.509 106.62V105.85H539.011C538.115 105.85 537.667 106.144 537.667 106.732C537.667 107.012 537.775 107.236 537.989 107.404C538.213 107.563 538.517 107.642 538.899 107.642ZM552.424 98.612V109H550.338V108.132C549.797 108.785 549.013 109.112 547.986 109.112C547.277 109.112 546.633 108.953 546.054 108.636C545.485 108.319 545.037 107.866 544.71 107.278C544.383 106.69 544.22 106.009 544.22 105.234C544.22 104.459 544.383 103.778 544.71 103.19C545.037 102.602 545.485 102.149 546.054 101.832C546.633 101.515 547.277 101.356 547.986 101.356C548.947 101.356 549.699 101.659 550.24 102.266V98.612H552.424ZM548.364 107.32C548.915 107.32 549.372 107.133 549.736 106.76C550.1 106.377 550.282 105.869 550.282 105.234C550.282 104.599 550.1 104.095 549.736 103.722C549.372 103.339 548.915 103.148 548.364 103.148C547.804 103.148 547.342 103.339 546.978 103.722C546.614 104.095 546.432 104.599 546.432 105.234C546.432 105.869 546.614 106.377 546.978 106.76C547.342 107.133 547.804 107.32 548.364 107.32ZM554.6 99.2H556.868V109H554.6V99.2ZM563.617 101.356C564.551 101.356 565.302 101.636 565.871 102.196C566.45 102.756 566.739 103.587 566.739 104.688V109H564.555V105.024C564.555 104.427 564.425 103.983 564.163 103.694C563.902 103.395 563.524 103.246 563.029 103.246C562.479 103.246 562.04 103.419 561.713 103.764C561.387 104.1 561.223 104.604 561.223 105.276V109H559.039V101.468H561.125V102.35C561.415 102.033 561.774 101.79 562.203 101.622C562.633 101.445 563.104 101.356 563.617 101.356Z" fill="white"/>
<path d="M505 70V82C505 84.7614 507.239 87 510 87H517" stroke="white"/>
<path d="M505 77V99C505 101.761 507.239 104 510 104H517" stroke="white"/>
<defs>
<filter id="filter0_dddddd" x="208" y="0" width="298" height="245" filterUnits="userSpaceOnUse" color-interpolation-filters="sRGB">
<feFlood flood-opacity="0" result="BackgroundImageFix"/>
<feColorMatrix in="SourceAlpha" type="matrix" values="0 0 0 0 0 0 0 0 0 0 0 0 0 0 0 0 0 0 127 0"/>
<feOffset dy="1"/>
<feGaussianBlur stdDeviation="1"/>
<feColorMatrix type="matrix" values="0 0 0 0 0 0 0 0 0 0 0 0 0 0 0 0 0 0 0.07 0"/>
<feBlend mode="normal" in2="BackgroundImageFix" result="effect1_dropShadow"/>
<feColorMatrix in="SourceAlpha" type="matrix" values="0 0 0 0 0 0 0 0 0 0 0 0 0 0 0 0 0 0 127 0"/>
<feOffset dy="2"/>
<feGaussianBlur stdDeviation="2"/>
<feColorMatrix type="matrix" values="0 0 0 0 0 0 0 0 0 0 0 0 0 0 0 0 0 0 0.07 0"/>
<feBlend mode="normal" in2="effect1_dropShadow" result="effect2_dropShadow"/>
<feColorMatrix in="SourceAlpha" type="matrix" values="0 0 0 0 0 0 0 0 0 0 0 0 0 0 0 0 0 0 127 0"/>
<feOffset dy="4"/>
<feGaussianBlur stdDeviation="4"/>
<feColorMatrix type="matrix" values="0 0 0 0 0 0 0 0 0 0 0 0 0 0 0 0 0 0 0.07 0"/>
<feBlend mode="normal" in2="effect2_dropShadow" result="effect3_dropShadow"/>
<feColorMatrix in="SourceAlpha" type="matrix" values="0 0 0 0 0 0 0 0 0 0 0 0 0 0 0 0 0 0 127 0"/>
<feOffset dy="8"/>
<feGaussianBlur stdDeviation="8"/>
<feColorMatrix type="matrix" values="0 0 0 0 0 0 0 0 0 0 0 0 0 0 0 0 0 0 0.07 0"/>
<feBlend mode="normal" in2="effect3_dropShadow" result="effect4_dropShadow"/>
<feColorMatrix in="SourceAlpha" type="matrix" values="0 0 0 0 0 0 0 0 0 0 0 0 0 0 0 0 0 0 127 0"/>
<feOffset dy="16"/>
<feGaussianBlur stdDeviation="16"/>
<feColorMatrix type="matrix" values="0 0 0 0 0 0 0 0 0 0 0 0 0 0 0 0 0 0 0.07 0"/>
<feBlend mode="normal" in2="effect4_dropShadow" result="effect5_dropShadow"/>
<feColorMatrix in="SourceAlpha" type="matrix" values="0 0 0 0 0 0 0 0 0 0 0 0 0 0 0 0 0 0 127 0"/>
<feOffset dy="32"/>
<feGaussianBlur stdDeviation="32"/>
<feColorMatrix type="matrix" values="0 0 0 0 0 0 0 0 0 0 0 0 0 0 0 0 0 0 0.07 0"/>
<feBlend mode="normal" in2="effect5_dropShadow" result="effect6_dropShadow"/>
<feBlend mode="normal" in="SourceGraphic" in2="effect6_dropShadow" result="shape"/>
</filter>
<filter id="filter1_dddddd" x="0" y="0" width="298" height="228" filterUnits="userSpaceOnUse" color-interpolation-filters="sRGB">
<feFlood flood-opacity="0" result="BackgroundImageFix"/>
<feColorMatrix in="SourceAlpha" type="matrix" values="0 0 0 0 0 0 0 0 0 0 0 0 0 0 0 0 0 0 127 0"/>
<feOffset dy="1"/>
<feGaussianBlur stdDeviation="1"/>
<feColorMatrix type="matrix" values="0 0 0 0 0 0 0 0 0 0 0 0 0 0 0 0 0 0 0.07 0"/>
<feBlend mode="normal" in2="BackgroundImageFix" result="effect1_dropShadow"/>
<feColorMatrix in="SourceAlpha" type="matrix" values="0 0 0 0 0 0 0 0 0 0 0 0 0 0 0 0 0 0 127 0"/>
<feOffset dy="2"/>
<feGaussianBlur stdDeviation="2"/>
<feColorMatrix type="matrix" values="0 0 0 0 0 0 0 0 0 0 0 0 0 0 0 0 0 0 0.07 0"/>
<feBlend mode="normal" in2="effect1_dropShadow" result="effect2_dropShadow"/>
<feColorMatrix in="SourceAlpha" type="matrix" values="0 0 0 0 0 0 0 0 0 0 0 0 0 0 0 0 0 0 127 0"/>
<feOffset dy="4"/>
<feGaussianBlur stdDeviation="4"/>
<feColorMatrix type="matrix" values="0 0 0 0 0 0 0 0 0 0 0 0 0 0 0 0 0 0 0.07 0"/>
<feBlend mode="normal" in2="effect2_dropShadow" result="effect3_dropShadow"/>
<feColorMatrix in="SourceAlpha" type="matrix" values="0 0 0 0 0 0 0 0 0 0 0 0 0 0 0 0 0 0 127 0"/>
<feOffset dy="8"/>
<feGaussianBlur stdDeviation="8"/>
<feColorMatrix type="matrix" values="0 0 0 0 0 0 0 0 0 0 0 0 0 0 0 0 0 0 0.07 0"/>
<feBlend mode="normal" in2="effect3_dropShadow" result="effect4_dropShadow"/>
<feColorMatrix in="SourceAlpha" type="matrix" values="0 0 0 0 0 0 0 0 0 0 0 0 0 0 0 0 0 0 127 0"/>
<feOffset dy="16"/>
<feGaussianBlur stdDeviation="16"/>
<feColorMatrix type="matrix" values="0 0 0 0 0 0 0 0 0 0 0 0 0 0 0 0 0 0 0.07 0"/>
<feBlend mode="normal" in2="effect4_dropShadow" result="effect5_dropShadow"/>
<feColorMatrix in="SourceAlpha" type="matrix" values="0 0 0 0 0 0 0 0 0 0 0 0 0 0 0 0 0 0 127 0"/>
<feOffset dy="32"/>
<feGaussianBlur stdDeviation="32"/>
<feColorMatrix type="matrix" values="0 0 0 0 0 0 0 0 0 0 0 0 0 0 0 0 0 0 0.07 0"/>
<feBlend mode="normal" in2="effect5_dropShadow" result="effect6_dropShadow"/>
<feBlend mode="normal" in="SourceGraphic" in2="effect6_dropShadow" result="shape"/>
</filter>
<filter id="filter2_dddddd" x="416" y="0" width="298" height="228" filterUnits="userSpaceOnUse" color-interpolation-filters="sRGB">
<feFlood flood-opacity="0" result="BackgroundImageFix"/>
<feColorMatrix in="SourceAlpha" type="matrix" values="0 0 0 0 0 0 0 0 0 0 0 0 0 0 0 0 0 0 127 0"/>
<feOffset dy="1"/>
<feGaussianBlur stdDeviation="1"/>
<feColorMatrix type="matrix" values="0 0 0 0 0 0 0 0 0 0 0 0 0 0 0 0 0 0 0.07 0"/>
<feBlend mode="normal" in2="BackgroundImageFix" result="effect1_dropShadow"/>
<feColorMatrix in="SourceAlpha" type="matrix" values="0 0 0 0 0 0 0 0 0 0 0 0 0 0 0 0 0 0 127 0"/>
<feOffset dy="2"/>
<feGaussianBlur stdDeviation="2"/>
<feColorMatrix type="matrix" values="0 0 0 0 0 0 0 0 0 0 0 0 0 0 0 0 0 0 0.07 0"/>
<feBlend mode="normal" in2="effect1_dropShadow" result="effect2_dropShadow"/>
<feColorMatrix in="SourceAlpha" type="matrix" values="0 0 0 0 0 0 0 0 0 0 0 0 0 0 0 0 0 0 127 0"/>
<feOffset dy="4"/>
<feGaussianBlur stdDeviation="4"/>
<feColorMatrix type="matrix" values="0 0 0 0 0 0 0 0 0 0 0 0 0 0 0 0 0 0 0.07 0"/>
<feBlend mode="normal" in2="effect2_dropShadow" result="effect3_dropShadow"/>
<feColorMatrix in="SourceAlpha" type="matrix" values="0 0 0 0 0 0 0 0 0 0 0 0 0 0 0 0 0 0 127 0"/>
<feOffset dy="8"/>
<feGaussianBlur stdDeviation="8"/>
<feColorMatrix type="matrix" values="0 0 0 0 0 0 0 0 0 0 0 0 0 0 0 0 0 0 0.07 0"/>
<feBlend mode="normal" in2="effect3_dropShadow" result="effect4_dropShadow"/>
<feColorMatrix in="SourceAlpha" type="matrix" values="0 0 0 0 0 0 0 0 0 0 0 0 0 0 0 0 0 0 127 0"/>
<feOffset dy="16"/>
<feGaussianBlur stdDeviation="16"/>
<feColorMatrix type="matrix" values="0 0 0 0 0 0 0 0 0 0 0 0 0 0 0 0 0 0 0.07 0"/>
<feBlend mode="normal" in2="effect4_dropShadow" result="effect5_dropShadow"/>
<feColorMatrix in="SourceAlpha" type="matrix" values="0 0 0 0 0 0 0 0 0 0 0 0 0 0 0 0 0 0 127 0"/>
<feOffset dy="32"/>
<feGaussianBlur stdDeviation="32"/>
<feColorMatrix type="matrix" values="0 0 0 0 0 0 0 0 0 0 0 0 0 0 0 0 0 0 0.07 0"/>
<feBlend mode="normal" in2="effect5_dropShadow" result="effect6_dropShadow"/>
<feBlend mode="normal" in="SourceGraphic" in2="effect6_dropShadow" result="shape"/>
</filter>
<linearGradient id="paint0_linear" x1="357" y1="32" x2="357" y2="149" gradientUnits="userSpaceOnUse">
<stop stop-color="#229155"/>
<stop offset="1" stop-color="#176B3E"/>
</linearGradient>
<linearGradient id="paint1_linear" x1="149" y1="32" x2="149" y2="132" gradientUnits="userSpaceOnUse">
<stop stop-color="#F25D31"/>
<stop offset="1" stop-color="#E64415"/>
</linearGradient>
<linearGradient id="paint2_linear" x1="565" y1="32" x2="565" y2="132" gradientUnits="userSpaceOnUse">
<stop stop-color="#105295"/>
<stop offset="1" stop-color="#032F5C"/>
</linearGradient>
</defs>
</svg>
