<svg width="1429" height="1002" viewBox="0 0 1429 1002" fill="none" xmlns="http://www.w3.org/2000/svg">
<path d="M761.486 654.209C780.532 683.327 819.577 691.492 848.695 672.446L779.723 567C750.605 586.046 742.44 625.091 761.486 654.209Z" fill="#F0A868" fill-opacity="0.36"/>
<path d="M76.4863 245.209C95.5325 274.327 134.577 282.492 163.695 263.446L94.7228 158C65.6048 177.046 57.44 216.091 76.4863 245.209Z" fill="#F0A868" fill-opacity="0.36"/>
<path d="M401.405 188.288L438.249 294.672L327.695 273.388L401.405 188.288Z" fill="#F0A868" fill-opacity="0.12"/>
<path d="M1286.42 502.538C1289.43 489.802 1305.1 485.098 1314.62 494.072L1437.86 610.17C1447.39 619.143 1443.63 635.063 1431.09 638.826L1268.93 687.507C1256.4 691.27 1244.49 680.053 1247.5 667.317L1286.42 502.538Z" fill="#F0A868" fill-opacity="0.2"/>
<rect x="492.208" y="715.462" width="29" height="190" transform="rotate(-15.5789 492.208 715.462)" fill="#F0A868" fill-opacity="0.13"/>
<rect x="832.505" y="134.506" width="59.1662" height="190" transform="rotate(12.5264 832.505 134.506)" fill="#F0A868" fill-opacity="0.19"/>
</svg>
